<svg version="1.1" viewBox="0.0 0.0 600.0 371.0" fill="none" stroke="none" stroke-linecap="square" stroke-miterlimit="10" width="600" height="371" xmlns:xlink="http://www.w3.org/1999/xlink" xmlns="http://www.w3.org/2000/svg"><path fill="#ffffff" d="M0 0L600.0 0L600.0 371.0L0 371.0L0 0Z" fill-rule="nonzero"/><path stroke="#333333" stroke-width="1.0" stroke-linecap="butt" d="M45.5 292.5L581.5 292.5" fill-rule="nonzero"/><path stroke="#cccccc" stroke-width="1.0" stroke-linecap="butt" d="M45.5 236.5L581.5 236.5" fill-rule="nonzero"/><path stroke="#cccccc" stroke-width="1.0" stroke-linecap="butt" d="M45.5 180.5L581.5 180.5" fill-rule="nonzero"/><path stroke="#cccccc" stroke-width="1.0" stroke-linecap="butt" d="M45.5 124.5L581.5 124.5" fill-rule="nonzero"/><path stroke="#cccccc" stroke-width="1.0" stroke-linecap="butt" d="M45.5 67.5L581.5 67.5" fill-rule="nonzero"/><clipPath id="id_0"><path d="M45.55 67.916664L581.45 67.916664L581.45 292.45L45.55 292.45L45.55 67.916664Z" clip-rule="nonzero"/></clipPath><path stroke="#ea4335" stroke-width="2.0" stroke-linecap="butt" clip-path="url(#id_0)" d="M75.32222 287.8134L134.86667 283.85037L194.41112 280.4936L253.95555 279.22498L313.5 252.74129L373.04443 255.46936L432.5889 196.88861L492.13333 148.06384L551.6778 85.77829" fill-rule="nonzero"/><path stroke="#fbbc04" stroke-width="2.0" stroke-linecap="butt" clip-path="url(#id_0)" d="M75.32222 282.04288L134.86667 274.79047L194.41112 272.19708L253.95555 268.13303L313.5 238.02312L373.04443 231.66882L432.5889 172.02155L492.13333 124.409256L551.6778 71.81232" fill-rule="nonzero"/><path fill="#000000" fill-opacity="0.0" clip-path="url(#id_0)" d="M78.32222 287.8134C78.32222 289.47025 76.97908 290.8134 75.32222 290.8134C73.66537 290.8134 72.32222 289.47025 72.32222 287.8134C72.32222 286.15652 73.66537 284.8134 75.32222 284.8134C76.97908 284.8134 78.32222 286.15652 78.32222 287.8134Z" fill-rule="nonzero"/><path fill="#000000" fill-opacity="0.0" clip-path="url(#id_0)" d="M137.86667 283.85037C137.86667 285.50723 136.52351 286.85037 134.86667 286.85037C133.20981 286.85037 131.86667 285.50723 131.86667 283.85037C131.86667 282.1935 133.20981 280.85037 134.86667 280.85037C136.52351 280.85037 137.86667 282.1935 137.86667 283.85037Z" fill-rule="nonzero"/><path fill="#000000" fill-opacity="0.0" clip-path="url(#id_0)" d="M197.41112 280.4936C197.41112 282.15045 196.06796 283.4936 194.41112 283.4936C192.75426 283.4936 191.41112 282.15045 191.41112 280.4936C191.41112 278.83673 192.75426 277.4936 194.41112 277.4936C196.06796 277.4936 197.41112 278.83673 197.41112 280.4936Z" fill-rule="nonzero"/><path fill="#000000" fill-opacity="0.0" clip-path="url(#id_0)" d="M256.95557 279.22498C256.95557 280.88184 255.61241 282.22498 253.95555 282.22498C252.2987 282.22498 250.95555 280.88184 250.95555 279.22498C250.95555 277.56815 252.2987 276.22498 253.95555 276.22498C255.61241 276.22498 256.95557 277.56815 256.95557 279.22498Z" fill-rule="nonzero"/><path fill="#000000" fill-opacity="0.0" clip-path="url(#id_0)" d="M316.5 252.74129C316.5 254.39813 315.15686 255.74129 313.5 255.74129C311.84314 255.74129 310.5 254.39813 310.5 252.74129C310.5 251.08443 311.84314 249.74129 313.5 249.74129C315.15686 249.74129 316.5 251.08443 316.5 252.74129Z" fill-rule="nonzero"/><path fill="#000000" fill-opacity="0.0" clip-path="url(#id_0)" d="M376.04443 255.46936C376.04443 257.12622 374.7013 258.46936 373.04443 258.46936C371.3876 258.46936 370.04443 257.12622 370.04443 255.46936C370.04443 253.8125 371.3876 252.46936 373.04443 252.46936C374.7013 252.46936 376.04443 253.8125 376.04443 255.46936Z" fill-rule="nonzero"/><path fill="#000000" fill-opacity="0.0" clip-path="url(#id_0)" d="M435.5889 196.88861C435.5889 198.54547 434.24576 199.88861 432.5889 199.88861C430.93204 199.88861 429.5889 198.54547 429.5889 196.88861C429.5889 195.23177 430.93204 193.88861 432.5889 193.88861C434.24576 193.88861 435.5889 195.23177 435.5889 196.88861Z" fill-rule="nonzero"/><path fill="#000000" fill-opacity="0.0" clip-path="url(#id_0)" d="M495.13333 148.06384C495.13333 149.72069 493.7902 151.06384 492.13333 151.06384C490.47647 151.06384 489.13333 149.72069 489.13333 148.06384C489.13333 146.40698 490.47647 145.06384 492.13333 145.06384C493.7902 145.06384 495.13333 146.40698 495.13333 148.06384Z" fill-rule="nonzero"/><path fill="#000000" fill-opacity="0.0" clip-path="url(#id_0)" d="M554.6778 85.77829C554.6778 87.43515 553.33466 88.77829 551.6778 88.77829C550.02094 88.77829 548.6778 87.43515 548.6778 85.77829C548.6778 84.12144 550.02094 82.77829 551.6778 82.77829C553.33466 82.77829 554.6778 84.12144 554.6778 85.77829Z" fill-rule="nonzero"/><path fill="#000000" fill-opacity="0.0" clip-path="url(#id_0)" d="M78.32222 282.04288C78.32222 283.69974 76.97908 285.04288 75.32222 285.04288C73.66537 285.04288 72.32222 283.69974 72.32222 282.04288C72.32222 280.38602 73.66537 279.04288 75.32222 279.04288C76.97908 279.04288 78.32222 280.38602 78.32222 282.04288Z" fill-rule="nonzero"/><path fill="#000000" fill-opacity="0.0" clip-path="url(#id_0)" d="M137.86667 274.79047C137.86667 276.4473 136.52351 277.79047 134.86667 277.79047C133.20981 277.79047 131.86667 276.4473 131.86667 274.79047C131.86667 273.1336 133.20981 271.79047 134.86667 271.79047C136.52351 271.79047 137.86667 273.1336 137.86667 274.79047Z" fill-rule="nonzero"/><path fill="#000000" fill-opacity="0.0" clip-path="url(#id_0)" d="M197.41112 272.19708C197.41112 273.85394 196.06796 275.19708 194.41112 275.19708C192.75426 275.19708 191.41112 273.85394 191.41112 272.19708C191.41112 270.54025 192.75426 269.19708 194.41112 269.19708C196.06796 269.19708 197.41112 270.54025 197.41112 272.19708Z" fill-rule="nonzero"/><path fill="#000000" fill-opacity="0.0" clip-path="url(#id_0)" d="M256.95557 268.13303C256.95557 269.7899 255.61241 271.13303 253.95555 271.13303C252.2987 271.13303 250.95555 269.7899 250.95555 268.13303C250.95555 266.4762 252.2987 265.13303 253.95555 265.13303C255.61241 265.13303 256.95557 266.4762 256.95557 268.13303Z" fill-rule="nonzero"/><path fill="#000000" fill-opacity="0.0" clip-path="url(#id_0)" d="M316.5 238.02312C316.5 239.67998 315.15686 241.02312 313.5 241.02312C311.84314 241.02312 310.5 239.67998 310.5 238.02312C310.5 236.36627 311.84314 235.02312 313.5 235.02312C315.15686 235.02312 316.5 236.36627 316.5 238.02312Z" fill-rule="nonzero"/><path fill="#000000" fill-opacity="0.0" clip-path="url(#id_0)" d="M376.04443 231.66882C376.04443 233.32568 374.7013 234.66882 373.04443 234.66882C371.3876 234.66882 370.04443 233.32568 370.04443 231.66882C370.04443 230.01198 371.3876 228.66882 373.04443 228.66882C374.7013 228.66882 376.04443 230.01198 376.04443 231.66882Z" fill-rule="nonzero"/><path fill="#000000" fill-opacity="0.0" clip-path="url(#id_0)" d="M435.5889 172.02155C435.5889 173.6784 434.24576 175.02155 432.5889 175.02155C430.93204 175.02155 429.5889 173.6784 429.5889 172.02155C429.5889 170.36469 430.93204 169.02155 432.5889 169.02155C434.24576 169.02155 435.5889 170.36469 435.5889 172.02155Z" fill-rule="nonzero"/><path fill="#000000" fill-opacity="0.0" clip-path="url(#id_0)" d="M495.13333 124.409256C495.13333 126.06611 493.7902 127.409256 492.13333 127.409256C490.47647 127.409256 489.13333 126.06611 489.13333 124.409256C489.13333 122.752396 490.47647 121.409256 492.13333 121.409256C493.7902 121.409256 495.13333 122.752396 495.13333 124.409256Z" fill-rule="nonzero"/><path fill="#000000" fill-opacity="0.0" clip-path="url(#id_0)" d="M554.6778 71.81232C554.6778 73.46918 553.33466 74.81232 551.6778 74.81232C550.02094 74.81232 548.6778 73.46918 548.6778 71.81232C548.6778 70.155464 550.02094 68.81232 551.6778 68.81232C553.33466 68.81232 554.6778 70.155464 554.6778 71.81232Z" fill-rule="nonzero"/><path fill="#000000" d="M297.28125 346.9969Q297.28125 346.7469 297.45312 346.59064Q297.625 346.4344 297.875 346.4344Q298.17188 346.4344 298.375 346.7625Q298.6875 347.2 298.92188 347.3719Q299.40625 347.7 300.35938 347.7Q301.26562 347.7 302.04688 347.29376Q303.04688 346.79376 303.04688 345.90314Q303.04688 345.16876 302.20312 344.73126Q301.5 344.3719 300.45312 344.34064Q299.53125 344.29376 298.875 343.9344Q298.04688 343.45 298.04688 342.575Q298.04688 341.52814 299.23438 340.66876Q300.35938 339.85626 301.5625 339.85626Q302.14062 339.85626 302.85938 340.04376Q303.79688 340.29376 303.79688 340.6844Q303.79688 341.2 303.28125 341.2Q303.04688 341.2 302.45312 341.075Q301.875 340.95 301.54688 340.96564Q300.625 340.96564 300.0 341.41876Q299.34375 341.85626 299.34375 342.5125Q299.34375 342.9969 300.20312 343.2Q300.53125 343.2625 301.45312 343.34064Q302.79688 343.4344 303.54688 344.1844Q304.23438 344.85626 304.23438 345.84064Q304.23438 347.23126 302.95312 348.0594Q301.82812 348.77814 300.35938 348.77814Q299.28125 348.77814 298.39062 348.3719Q297.29688 347.8719 297.28125 346.9969ZM307.8125 348.65314Q307.21875 348.65314 306.51562 348.46564L306.5 351.2625Q306.5 351.52814 306.34375 351.6844Q306.1875 351.85626 305.9375 351.85626Q305.67188 351.85626 305.51562 351.6844Q305.35938 351.52814 305.35938 351.2625L305.375 348.91876L305.375 346.59064Q305.35938 345.3094 305.28125 344.2469L305.20312 343.0594Q305.20312 342.6375 305.34375 342.35626Q305.53125 342.0125 305.85938 342.0125Q306.09375 342.0125 306.25 342.16876Q306.40625 342.325 306.40625 342.5594Q306.40625 342.6219 306.375 342.7625Q306.35938 342.9344 306.34375 343.09064Q306.84375 342.7469 307.3125 342.575Q307.78125 342.40314 308.20312 342.40314Q309.40625 342.40314 309.96875 343.46564Q310.40625 344.3094 310.40625 345.7Q310.40625 346.96564 309.73438 347.79376Q309.0 348.65314 307.8125 348.65314ZM308.20312 343.575Q307.67188 343.575 307.23438 343.8094Q306.92188 343.98126 306.45312 344.4344Q306.53125 345.7625 306.53125 347.23126Q307.17188 347.48126 307.8125 347.48126Q308.53125 347.48126 308.92188 346.9344Q309.26562 346.45 309.26562 345.7Q309.26562 344.6375 309.0 344.10626Q308.73438 343.575 308.20312 343.575ZM312.79688 343.84064L312.71875 346.7625Q312.71875 347.21564 312.67188 348.1219Q312.60938 348.7 312.09375 348.7Q311.51562 348.7 311.51562 348.10626Q311.51562 347.3875 311.57812 345.98126Q311.65625 344.5594 311.65625 343.84064Q311.65625 342.91876 311.67188 341.73126Q311.70312 340.52814 311.70312 339.60626Q311.70312 339.02814 312.28125 339.02814Q312.85938 339.02814 312.85938 339.60626Q312.85938 340.52814 312.82812 341.73126Q312.79688 342.91876 312.79688 343.84064ZM316.4375 341.02814Q316.15625 341.02814 315.95312 340.84064Q315.75 340.6375 315.75 340.35626Q315.75 340.075 315.95312 339.8719Q316.15625 339.66876 316.4375 339.66876Q316.71875 339.66876 316.92188 339.8719Q317.125 340.075 317.125 340.35626Q317.125 340.6375 316.92188 340.84064Q316.71875 341.02814 316.4375 341.02814ZM316.70312 345.79376Q316.70312 346.1375 316.71875 346.84064Q316.73438 347.54376 316.73438 347.8875Q316.73438 348.15314 316.57812 348.325Q316.42188 348.48126 316.17188 348.48126Q315.90625 348.48126 315.75 348.325Q315.59375 348.15314 315.59375 347.8875Q315.59375 347.54376 315.5625 346.84064Q315.54688 346.1375 315.54688 345.79376Q315.54688 345.23126 315.60938 344.41876Q315.67188 343.59064 315.67188 343.04376Q315.67188 342.77814 315.82812 342.6219Q315.98438 342.45 316.23438 342.45Q316.5 342.45 316.65625 342.6219Q316.8125 342.77814 316.8125 343.04376Q316.8125 343.59064 316.75 344.41876Q316.70312 345.23126 316.70312 345.79376ZM323.23438 343.45Q323.10938 343.45 322.9375 343.45Q322.78125 343.4344 322.65625 343.4344Q322.51562 343.4344 321.85938 343.52814L321.96875 346.98126L321.96875 347.2469L321.98438 347.54376Q322.0 348.825 321.35938 348.825Q321.125 348.825 320.95312 348.66876Q320.78125 348.52814 320.78125 348.29376Q320.78125 348.075 320.79688 347.6375Q320.82812 347.1844 320.82812 346.95L320.70312 343.52814Q320.28125 343.5125 319.40625 343.4344Q318.875 343.35626 318.875 342.85626Q318.875 342.59064 319.03125 342.4344Q319.20312 342.2625 319.4375 342.2625L320.67188 342.35626Q320.67188 342.0594 320.64062 341.5594Q320.625 341.0594 320.625 340.825Q320.625 340.59064 320.79688 340.4344Q320.96875 340.2625 321.20312 340.2625Q321.73438 340.2625 321.82812 341.1219Q321.84375 341.34064 321.84375 341.65314L321.82812 341.98126L321.82812 342.35626Q322.54688 342.2625 322.65625 342.2625Q323.26562 342.2625 323.45312 342.3094Q323.8125 342.4344 323.8125 342.8719Q323.8125 343.1219 323.64062 343.29376Q323.48438 343.45 323.23438 343.45ZM329.26562 343.9344Q328.95312 343.9344 328.8125 343.71564Q328.73438 343.575 328.67188 343.09064Q328.23438 343.2 327.3125 343.4969Q326.375 343.8719 326.35938 344.41876Q326.54688 344.48126 326.70312 344.5125Q328.0625 344.7625 328.71875 345.1844Q329.67188 345.79376 329.67188 346.96564Q329.67188 347.91876 328.84375 348.40314Q328.15625 348.8094 327.10938 348.8094Q326.34375 348.8094 325.64062 348.54376Q324.73438 348.21564 324.73438 347.6219Q324.73438 347.3875 324.92188 347.21564Q325.10938 347.04376 325.34375 347.04376Q325.53125 347.04376 325.8125 347.325Q325.95312 347.46564 326.45312 347.54376Q326.84375 347.6219 327.10938 347.6219Q327.59375 347.6219 327.96875 347.4969Q328.51562 347.325 328.51562 346.96564Q328.51562 346.16876 327.40625 345.8875L326.79688 345.7469Q326.01562 345.575 325.6875 345.35626Q325.21875 345.02814 325.21875 344.35626Q325.21875 343.1375 326.375 342.60626Q326.71875 342.45 327.48438 342.23126Q328.26562 342.0125 328.60938 341.85626Q328.84375 341.7625 329.125 341.7625Q329.375 341.7625 329.53125 341.9344Q329.70312 342.09064 329.70312 342.35626Q329.70312 342.5125 329.76562 342.84064Q329.84375 343.16876 329.84375 343.34064Q329.84375 343.60626 329.67188 343.77814Q329.51562 343.9344 329.26562 343.9344Z" fill-rule="nonzero"/><path fill="#000000" d="M26.128124 297.6844Q24.346874 297.6844 23.534374 296.04376Q22.909374 294.79376 22.909374 292.77814Q22.909374 291.09064 23.721874 289.825Q24.675 288.34064 26.315624 288.34064Q27.846874 288.34064 28.721874 289.65314Q29.45625 290.79376 29.45625 292.41876Q29.45625 295.04376 28.628124 296.3719Q27.8 297.6844 26.128124 297.6844ZM26.3 289.46564Q25.221874 289.46564 24.58125 290.575Q24.05 291.4969 24.05 292.6844Q24.05 294.6219 24.565624 295.59064Q25.08125 296.5594 26.128124 296.5594Q27.378124 296.5594 27.909374 295.1375Q28.284374 294.15314 28.284374 292.6375Q28.284374 291.04376 27.784374 290.2625Q27.3 289.46564 26.3 289.46564ZM31.1125 297.9969Q30.815624 297.9969 30.596874 297.77814Q30.39375 297.575 30.39375 297.2625Q30.39375 296.96564 30.596874 296.7625Q30.815624 296.54376 31.1125 296.54376Q31.409374 296.54376 31.628124 296.7625Q31.846874 296.96564 31.846874 297.2625Q31.846874 297.575 31.628124 297.77814Q31.409374 297.9969 31.1125 297.9969ZM36.128124 297.6844Q34.346874 297.6844 33.534374 296.04376Q32.909374 294.79376 32.909374 292.77814Q32.909374 291.09064 33.721874 289.825Q34.675 288.34064 36.315624 288.34064Q37.846874 288.34064 38.721874 289.65314Q39.45625 290.79376 39.45625 292.41876Q39.45625 295.04376 38.628124 296.3719Q37.8 297.6844 36.128124 297.6844ZM36.3 289.46564Q35.221874 289.46564 34.58125 290.575Q34.05 291.4969 34.05 292.6844Q34.05 294.6219 34.565624 295.59064Q35.08125 296.5594 36.128124 296.5594Q37.378124 296.5594 37.909374 295.1375Q38.284374 294.15314 38.284374 292.6375Q38.284374 291.04376 37.784374 290.2625Q37.3 289.46564 36.3 289.46564Z" fill-rule="nonzero"/><path fill="#000000" d="M26.128124 241.55104Q24.346874 241.55104 23.534374 239.91042Q22.909374 238.66042 22.909374 236.64479Q22.909374 234.95729 23.721874 233.69167Q24.675 232.20729 26.315624 232.20729Q27.846874 232.20729 28.721874 233.51979Q29.45625 234.66042 29.45625 236.28542Q29.45625 238.91042 28.628124 240.23854Q27.8 241.55104 26.128124 241.55104ZM26.3 233.33229Q25.221874 233.33229 24.58125 234.44167Q24.05 235.36354 24.05 236.55104Q24.05 238.48854 24.565624 239.45729Q25.08125 240.42604 26.128124 240.42604Q27.378124 240.42604 27.909374 239.00417Q28.284374 238.01979 28.284374 236.50417Q28.284374 234.91042 27.784374 234.12917Q27.3 233.33229 26.3 233.33229ZM31.1125 241.86354Q30.815624 241.86354 30.596874 241.64479Q30.39375 241.44167 30.39375 241.12917Q30.39375 240.83229 30.596874 240.62917Q30.815624 240.41042 31.1125 240.41042Q31.409374 240.41042 31.628124 240.62917Q31.846874 240.83229 31.846874 241.12917Q31.846874 241.44167 31.628124 241.64479Q31.409374 241.86354 31.1125 241.86354ZM35.846874 241.69167Q34.175 241.69167 33.39375 240.45729Q33.284374 240.28542 33.284374 240.12917Q33.284374 239.89479 33.471874 239.73854Q33.659374 239.56667 33.878124 239.56667Q34.128124 239.56667 34.33125 239.81667Q34.64375 240.19167 34.8 240.30104Q35.190624 240.56667 35.846874 240.56667Q36.8625 240.56667 37.51875 239.78542Q38.159374 239.05104 38.159374 238.00417Q38.159374 237.16042 37.878124 236.62917Q37.51875 235.94167 36.76875 235.94167Q36.14375 235.94167 35.7375 236.11354Q35.425 236.25417 35.096874 236.58229L34.45625 237.28542Q34.20625 237.53542 33.940624 237.53542Q33.70625 237.53542 33.534374 237.37917Q33.378124 237.20729 33.378124 236.97292Q33.378124 236.86354 33.471874 235.92604Q33.659374 234.08229 33.659374 233.50417Q33.659374 233.30104 33.55 233.06667Q33.45625 232.81667 33.45625 232.69167Q33.45625 232.33229 34.08125 232.33229Q34.190624 232.33229 34.425 232.36354Q34.659374 232.37917 34.784374 232.37917Q35.128124 232.37917 35.8 232.36354Q36.4875 232.33229 36.815624 232.33229Q36.9875 232.33229 37.3 232.34792Q37.628124 232.36354 37.784374 232.36354Q37.89375 232.36354 38.096874 232.31667Q38.315624 232.26979 38.425 232.26979Q38.64375 232.26979 38.815624 232.44167Q39.003124 232.61354 39.003124 232.83229Q39.003124 233.48854 37.6125 233.48854Q37.425 233.48854 37.14375 233.47292Q36.878124 233.45729 36.815624 233.45729L35.83125 233.48854L34.846874 233.50417Q34.846874 233.76979 34.628124 235.45729Q35.425 234.81667 36.76875 234.81667Q38.05 234.81667 38.7375 235.83229Q39.3 236.69167 39.3 238.00417Q39.3 239.59792 38.378124 240.61354Q37.425 241.69167 35.846874 241.69167Z" fill-rule="nonzero"/><path fill="#000000" d="M28.675 185.18333L27.503124 185.18333L26.346874 185.18333Q25.940624 185.18333 25.76875 185.13646Q25.471874 185.02708 25.471874 184.68333Q25.471874 184.08958 26.39375 184.08958L26.675 184.10521L26.925 184.10521Q26.925 183.82396 26.8625 183.27708Q26.815624 182.73021 26.815624 182.44896Q26.815624 181.71458 26.95625 180.18333Q27.08125 178.69896 27.08125 177.91771Q26.284374 178.52708 26.08125 178.52708Q25.846874 178.52708 25.659374 178.35521Q25.4875 178.18333 25.4875 177.94896Q25.4875 177.68333 26.003124 177.27708Q26.315624 177.05833 26.89375 176.57396Q27.409374 176.04271 27.878124 176.04271Q28.26875 176.04271 28.26875 176.49583Q28.26875 176.63646 28.2375 176.90208Q28.20625 177.16771 28.20625 177.30833Q28.20625 177.49583 28.221874 177.88646Q28.2375 178.27708 28.2375 178.48021Q28.2375 179.13646 28.096874 180.46458Q27.95625 181.79271 27.95625 182.44896Q27.95625 182.79271 28.003124 183.27708Q28.05 183.76146 28.065624 184.07396L28.675 184.05833Q28.925 184.05833 29.08125 184.23021Q29.2375 184.38646 29.2375 184.62083Q29.2375 184.87083 29.08125 185.02708Q28.925 185.18333 28.675 185.18333ZM31.1125 185.73021Q30.815624 185.73021 30.596874 185.51146Q30.39375 185.30833 30.39375 184.99583Q30.39375 184.69896 30.596874 184.49583Q30.815624 184.27708 31.1125 184.27708Q31.409374 184.27708 31.628124 184.49583Q31.846874 184.69896 31.846874 184.99583Q31.846874 185.30833 31.628124 185.51146Q31.409374 185.73021 31.1125 185.73021ZM36.128124 185.41771Q34.346874 185.41771 33.534374 183.77708Q32.909374 182.52708 32.909374 180.51146Q32.909374 178.82396 33.721874 177.55833Q34.675 176.07396 36.315624 176.07396Q37.846874 176.07396 38.721874 177.38646Q39.45625 178.52708 39.45625 180.15208Q39.45625 182.77708 38.628124 184.10521Q37.8 185.41771 36.128124 185.41771ZM36.3 177.19896Q35.221874 177.19896 34.58125 178.30833Q34.05 179.23021 34.05 180.41771Q34.05 182.35521 34.565624 183.32396Q35.08125 184.29271 36.128124 184.29271Q37.378124 184.29271 37.909374 182.87083Q38.284374 181.88646 38.284374 180.37083Q38.284374 178.77708 37.784374 177.99583Q37.3 177.19896 36.3 177.19896Z" fill-rule="nonzero"/><path fill="#000000" d="M28.675 129.05L27.503124 129.05L26.346874 129.05Q25.940624 129.05 25.76875 129.00313Q25.471874 128.89375 25.471874 128.55Q25.471874 127.95625 26.39375 127.95625L26.675 127.97188L26.925 127.97188Q26.925 127.69063 26.8625 127.14375Q26.815624 126.59688 26.815624 126.31563Q26.815624 125.58125 26.95625 124.05Q27.08125 122.56563 27.08125 121.78438Q26.284374 122.39375 26.08125 122.39375Q25.846874 122.39375 25.659374 122.22188Q25.4875 122.05 25.4875 121.81563Q25.4875 121.55 26.003124 121.14375Q26.315624 120.925 26.89375 120.44063Q27.409374 119.90938 27.878124 119.90938Q28.26875 119.90938 28.26875 120.3625Q28.26875 120.50313 28.2375 120.76875Q28.20625 121.03438 28.20625 121.175Q28.20625 121.3625 28.221874 121.75313Q28.2375 122.14375 28.2375 122.34688Q28.2375 123.00313 28.096874 124.33125Q27.95625 125.65938 27.95625 126.31563Q27.95625 126.65938 28.003124 127.14375Q28.05 127.62813 28.065624 127.94063L28.675 127.925Q28.925 127.925 29.08125 128.09688Q29.2375 128.25313 29.2375 128.4875Q29.2375 128.7375 29.08125 128.89375Q28.925 129.05 28.675 129.05ZM31.1125 129.59688Q30.815624 129.59688 30.596874 129.37813Q30.39375 129.175 30.39375 128.8625Q30.39375 128.56563 30.596874 128.3625Q30.815624 128.14375 31.1125 128.14375Q31.409374 128.14375 31.628124 128.3625Q31.846874 128.56563 31.846874 128.8625Q31.846874 129.175 31.628124 129.37813Q31.409374 129.59688 31.1125 129.59688ZM35.846874 129.425Q34.175 129.425 33.39375 128.19063Q33.284374 128.01875 33.284374 127.8625Q33.284374 127.62813 33.471874 127.47188Q33.659374 127.3 33.878124 127.3Q34.128124 127.3 34.33125 127.55Q34.64375 127.925 34.8 128.03438Q35.190624 128.3 35.846874 128.3Q36.8625 128.3 37.51875 127.51875Q38.159374 126.78438 38.159374 125.7375Q38.159374 124.89375 37.878124 124.3625Q37.51875 123.675 36.76875 123.675Q36.14375 123.675 35.7375 123.84688Q35.425 123.9875 35.096874 124.31563L34.45625 125.01875Q34.20625 125.26875 33.940624 125.26875Q33.70625 125.26875 33.534374 125.1125Q33.378124 124.94063 33.378124 124.70625Q33.378124 124.59688 33.471874 123.65938Q33.659374 121.81563 33.659374 121.2375Q33.659374 121.03438 33.55 120.8Q33.45625 120.55 33.45625 120.425Q33.45625 120.06563 34.08125 120.06563Q34.190624 120.06563 34.425 120.09688Q34.659374 120.1125 34.784374 120.1125Q35.128124 120.1125 35.8 120.09688Q36.4875 120.06563 36.815624 120.06563Q36.9875 120.06563 37.3 120.08125Q37.628124 120.09688 37.784374 120.09688Q37.89375 120.09688 38.096874 120.05Q38.315624 120.00313 38.425 120.00313Q38.64375 120.00313 38.815624 120.175Q39.003124 120.34688 39.003124 120.56563Q39.003124 121.22188 37.6125 121.22188Q37.425 121.22188 37.14375 121.20625Q36.878124 121.19063 36.815624 121.19063L35.83125 121.22188L34.846874 121.2375Q34.846874 121.50313 34.628124 123.19063Q35.425 122.55 36.76875 122.55Q38.05 122.55 38.7375 123.56563Q39.3 124.425 39.3 125.7375Q39.3 127.33125 38.378124 128.34688Q37.425 129.425 35.846874 129.425Z" fill-rule="nonzero"/><path fill="#000000" d="M28.45625 72.93229Q28.315624 72.93229 28.05 72.83854Q27.784374 72.74479 27.64375 72.74479Q27.33125 72.74479 26.7375 72.791664Q26.14375 72.822914 25.83125 72.822914Q25.6125 72.822914 25.159374 72.885414Q24.70625 72.93229 24.4875 72.93229Q24.425 72.93229 24.3 72.916664Q24.175 72.885414 24.1125 72.885414Q23.70625 72.885414 23.58125 72.49479Q23.51875 72.291664 23.51875 71.791664Q23.51875 70.43229 24.253124 69.58854Q24.596874 69.21354 26.096874 68.18229Q26.925 67.61979 27.20625 67.291664Q27.70625 66.729164 27.70625 65.979164Q27.70625 65.604164 27.221874 65.30729Q26.8 65.041664 26.39375 65.041664Q25.846874 65.041664 25.3625 65.354164L24.51875 66.010414Q24.26875 66.21354 24.128124 66.21354Q23.51875 66.21354 23.51875 65.729164Q23.51875 65.447914 23.7375 65.24479Q24.425 64.604164 24.925 64.322914Q25.64375 63.916664 26.39375 63.916664Q27.33125 63.916664 28.08125 64.43229Q28.909374 65.010414 28.909374 65.916664Q28.909374 66.510414 28.7375 67.02604Q28.58125 67.52604 28.221874 67.947914Q27.784374 68.46354 26.7375 69.11979Q25.64375 69.80729 25.3 70.166664Q24.64375 70.83854 24.659374 71.80729L25.8625 71.697914Q27.096874 71.61979 27.64375 71.61979Q28.08125 71.61979 28.4875 71.77604Q29.003124 71.979164 29.003124 72.33854Q29.003124 72.572914 28.846874 72.760414Q28.690624 72.93229 28.45625 72.93229ZM31.1125 73.46354Q30.815624 73.46354 30.596874 73.24479Q30.39375 73.041664 30.39375 72.729164Q30.39375 72.43229 30.596874 72.229164Q30.815624 72.010414 31.1125 72.010414Q31.409374 72.010414 31.628124 72.229164Q31.846874 72.43229 31.846874 72.729164Q31.846874 73.041664 31.628124 73.24479Q31.409374 73.46354 31.1125 73.46354ZM36.128124 73.15104Q34.346874 73.15104 33.534374 71.510414Q32.909374 70.260414 32.909374 68.24479Q32.909374 66.55729 33.721874 65.291664Q34.675 63.80729 36.315624 63.80729Q37.846874 63.80729 38.721874 65.11979Q39.45625 66.260414 39.45625 67.885414Q39.45625 70.510414 38.628124 71.83854Q37.8 73.15104 36.128124 73.15104ZM36.3 64.93229Q35.221874 64.93229 34.58125 66.041664Q34.05 66.96354 34.05 68.15104Q34.05 70.08854 34.565624 71.05729Q35.08125 72.02604 36.128124 72.02604Q37.378124 72.02604 37.909374 70.604164Q38.284374 69.61979 38.284374 68.104164Q38.284374 66.510414 37.784374 65.729164Q37.3 64.93229 36.3 64.93229Z" fill-rule="nonzero"/><path fill="#000000" d="M56.915974 311.7469Q56.4941 312.0594 55.540974 312.4969Q54.4941 313.0125 54.08785 313.0125Q53.853474 313.0125 53.697224 312.825Q53.540974 312.65314 53.540974 312.41876Q53.540974 312.075 53.9316 311.90314L54.915974 311.5594Q55.822224 311.2 56.33785 310.71564Q56.8691 310.23126 57.3066 309.35626L57.5566 308.84064Q57.228474 309.02814 56.71285 309.2Q56.197224 309.35626 55.884724 309.35626Q54.77535 309.35626 53.96285 308.73126Q52.978474 307.98126 52.978474 306.60626Q52.978474 304.96564 53.9941 304.15314Q54.853474 303.45 56.2441 303.45Q57.322224 303.45 58.1816 304.325Q59.08785 305.2625 59.08785 306.575Q59.103474 308.0594 58.540974 309.46564Q57.947224 310.98126 56.915974 311.7469ZM56.08785 304.45Q55.103474 304.45 54.603474 304.96564Q54.103474 305.46564 54.103474 306.4969Q54.103474 307.35626 54.71285 307.825Q55.2441 308.2469 56.0566 308.2469Q56.52535 308.2469 57.02535 307.96564Q57.259724 307.84064 57.8691 307.3875Q57.947224 306.8719 57.947224 306.575Q57.947224 305.84064 57.322224 305.15314Q56.71285 304.45 56.08785 304.45ZM62.90035 312.6844Q61.1191 312.6844 60.3066 311.04376Q59.6816 309.79376 59.6816 307.77814Q59.6816 306.09064 60.4941 304.825Q61.447224 303.34064 63.08785 303.34064Q64.619095 303.34064 65.494095 304.65314Q66.22847 305.79376 66.22847 307.41876Q66.22847 310.04376 65.400345 311.3719Q64.57222 312.6844 62.90035 312.6844ZM63.072224 304.46564Q61.9941 304.46564 61.353474 305.575Q60.822224 306.4969 60.822224 307.6844Q60.822224 309.6219 61.33785 310.59064Q61.853474 311.5594 62.90035 311.5594Q64.150345 311.5594 64.681595 310.1375Q65.056595 309.15314 65.056595 307.6375Q65.056595 306.04376 64.556595 305.2625Q64.07222 304.46564 63.072224 304.46564ZM73.837845 312.1375Q73.82222 312.6844 73.306595 312.6844Q72.88472 312.6844 72.681595 312.1844L71.79097 309.79376L70.744095 307.10626Q70.681595 306.96564 70.681595 306.84064Q70.681595 306.60626 70.869095 306.4344Q71.056595 306.2625 71.29097 306.2625Q71.63472 306.2625 71.79097 306.6219L73.275345 310.71564Q73.72847 309.77814 74.38472 307.9969Q74.54097 307.52814 74.88472 306.66876Q75.07222 306.29376 75.400345 306.29376Q75.650345 306.29376 75.82222 306.46564Q76.00972 306.6375 76.00972 306.8719Q76.00972 307.09064 75.04097 309.3719L73.837845 312.1375ZM81.087845 307.9344Q80.775345 307.9344 80.63472 307.71564Q80.556595 307.575 80.494095 307.09064Q80.056595 307.2 79.13472 307.4969Q78.19722 307.8719 78.181595 308.41876Q78.369095 308.48126 78.525345 308.5125Q79.88472 308.7625 80.54097 309.1844Q81.494095 309.79376 81.494095 310.96564Q81.494095 311.91876 80.66597 312.40314Q79.97847 312.8094 78.931595 312.8094Q78.16597 312.8094 77.462845 312.54376Q76.556595 312.21564 76.556595 311.6219Q76.556595 311.3875 76.744095 311.21564Q76.931595 311.04376 77.16597 311.04376Q77.35347 311.04376 77.63472 311.325Q77.775345 311.46564 78.275345 311.54376Q78.66597 311.6219 78.931595 311.6219Q79.41597 311.6219 79.79097 311.4969Q80.337845 311.325 80.337845 310.96564Q80.337845 310.16876 79.22847 309.8875L78.619095 309.7469Q77.837845 309.575 77.50972 309.35626Q77.04097 309.02814 77.04097 308.35626Q77.04097 307.1375 78.19722 306.60626Q78.54097 306.45 79.306595 306.23126Q80.087845 306.0125 80.431595 305.85626Q80.66597 305.7625 80.94722 305.7625Q81.19722 305.7625 81.35347 305.9344Q81.525345 306.09064 81.525345 306.35626Q81.525345 306.5125 81.587845 306.84064Q81.66597 307.16876 81.66597 307.34064Q81.66597 307.60626 81.494095 307.77814Q81.337845 307.9344 81.087845 307.9344ZM90.44722 312.45L89.275345 312.45L88.119095 312.45Q87.712845 312.45 87.54097 312.40314Q87.244095 312.29376 87.244095 311.95Q87.244095 311.35626 88.16597 311.35626L88.44722 311.3719L88.69722 311.3719Q88.69722 311.09064 88.63472 310.54376Q88.587845 309.9969 88.587845 309.71564Q88.587845 308.98126 88.72847 307.45Q88.85347 305.96564 88.85347 305.1844Q88.056595 305.79376 87.85347 305.79376Q87.619095 305.79376 87.431595 305.6219Q87.25972 305.45 87.25972 305.21564Q87.25972 304.95 87.775345 304.54376Q88.087845 304.325 88.66597 303.84064Q89.181595 303.3094 89.650345 303.3094Q90.04097 303.3094 90.04097 303.7625Q90.04097 303.90314 90.00972 304.16876Q89.97847 304.4344 89.97847 304.575Q89.97847 304.7625 89.994095 305.15314Q90.00972 305.54376 90.00972 305.7469Q90.00972 306.40314 89.869095 307.73126Q89.72847 309.0594 89.72847 309.71564Q89.72847 310.0594 89.775345 310.54376Q89.82222 311.02814 89.837845 311.34064L90.44722 311.325Q90.69722 311.325 90.85347 311.4969Q91.00972 311.65314 91.00972 311.8875Q91.00972 312.1375 90.85347 312.29376Q90.69722 312.45 90.44722 312.45ZM94.900345 312.6844Q93.119095 312.6844 92.306595 311.04376Q91.681595 309.79376 91.681595 307.77814Q91.681595 306.09064 92.494095 304.825Q93.44722 303.34064 95.087845 303.34064Q96.619095 303.34064 97.494095 304.65314Q98.22847 305.79376 98.22847 307.41876Q98.22847 310.04376 97.400345 311.3719Q96.57222 312.6844 94.900345 312.6844ZM95.07222 304.46564Q93.994095 304.46564 93.35347 305.575Q92.82222 306.4969 92.82222 307.6844Q92.82222 309.6219 93.337845 310.59064Q93.85347 311.5594 94.900345 311.5594Q96.150345 311.5594 96.681595 310.1375Q97.056595 309.15314 97.056595 307.6375Q97.056595 306.04376 96.556595 305.2625Q96.07222 304.46564 95.07222 304.46564Z" fill-rule="nonzero"/><path fill="#000000" d="M114.46042 312.7625Q113.22604 312.7625 112.46042 312.23126Q111.60104 311.6219 111.58542 310.4344Q111.55417 308.54376 112.91354 307.85626Q111.86667 307.23126 111.86667 306.0594Q111.86667 304.95 112.67917 304.21564Q113.44479 303.5125 114.53854 303.5125Q116.99167 303.48126 116.99167 305.9344Q116.99167 306.6375 116.71042 307.02814Q116.49167 307.34064 115.83542 307.66876Q116.71042 308.10626 117.05417 308.6219Q117.46042 309.21564 117.46042 310.2625Q117.46042 311.46564 116.58542 312.1375Q115.75729 312.7625 114.46042 312.7625ZM114.52292 304.5594Q113.75729 304.5594 113.36667 304.98126Q113.00729 305.3875 113.00729 306.0594Q113.02292 306.8875 114.36667 307.23126Q115.06979 307.02814 115.36667 306.825Q115.85104 306.4969 115.85104 305.9344Q115.85104 305.1375 115.49167 304.825Q115.19479 304.5594 114.52292 304.5594ZM114.41354 308.2625Q113.47604 308.7 113.16354 309.0125Q112.67917 309.4969 112.71042 310.3875Q112.74167 311.1219 113.38229 311.48126Q113.86667 311.7469 114.46042 311.7469Q115.49167 311.7469 115.91354 311.2469Q116.24167 310.8719 116.24167 310.075Q116.24167 309.3094 115.63229 308.84064Q115.24167 308.52814 114.41354 308.2625ZM121.44479 312.6844Q119.66354 312.6844 118.85104 311.04376Q118.22604 309.79376 118.22604 307.77814Q118.22604 306.09064 119.03854 304.825Q119.99167 303.34064 121.63229 303.34064Q123.16354 303.34064 124.03854 304.65314Q124.77292 305.79376 124.77292 307.41876Q124.77292 310.04376 123.94479 311.3719Q123.11667 312.6844 121.44479 312.6844ZM121.61667 304.46564Q120.53854 304.46564 119.89792 305.575Q119.36667 306.4969 119.36667 307.6844Q119.36667 309.6219 119.88229 310.59064Q120.39792 311.5594 121.44479 311.5594Q122.69479 311.5594 123.22604 310.1375Q123.60104 309.15314 123.60104 307.6375Q123.60104 306.04376 123.10104 305.2625Q122.61667 304.46564 121.61667 304.46564ZM132.3823 312.1375Q132.36667 312.6844 131.85104 312.6844Q131.42917 312.6844 131.22604 312.1844L130.33542 309.79376L129.28854 307.10626Q129.22604 306.96564 129.22604 306.84064Q129.22604 306.60626 129.41354 306.4344Q129.60104 306.2625 129.83542 306.2625Q130.17917 306.2625 130.33542 306.6219L131.8198 310.71564Q132.27292 309.77814 132.92917 307.9969Q133.08542 307.52814 133.42917 306.66876Q133.61667 306.29376 133.9448 306.29376Q134.1948 306.29376 134.36667 306.46564Q134.55417 306.6375 134.55417 306.8719Q134.55417 307.09064 133.58542 309.3719L132.3823 312.1375ZM139.6323 307.9344Q139.3198 307.9344 139.17917 307.71564Q139.10104 307.575 139.03854 307.09064Q138.60104 307.2 137.67917 307.4969Q136.74167 307.8719 136.72604 308.41876Q136.91354 308.48126 137.0698 308.5125Q138.42917 308.7625 139.08542 309.1844Q140.03854 309.79376 140.03854 310.96564Q140.03854 311.91876 139.21042 312.40314Q138.52292 312.8094 137.47604 312.8094Q136.71042 312.8094 136.0073 312.54376Q135.10104 312.21564 135.10104 311.6219Q135.10104 311.3875 135.28854 311.21564Q135.47604 311.04376 135.71042 311.04376Q135.89792 311.04376 136.17917 311.325Q136.3198 311.46564 136.8198 311.54376Q137.21042 311.6219 137.47604 311.6219Q137.96042 311.6219 138.33542 311.4969Q138.8823 311.325 138.8823 310.96564Q138.8823 310.16876 137.77292 309.8875L137.16354 309.7469Q136.3823 309.575 136.05417 309.35626Q135.58542 309.02814 135.58542 308.35626Q135.58542 307.1375 136.74167 306.60626Q137.08542 306.45 137.85104 306.23126Q138.6323 306.0125 138.97604 305.85626Q139.21042 305.7625 139.49167 305.7625Q139.74167 305.7625 139.89792 305.9344Q140.0698 306.09064 140.0698 306.35626Q140.0698 306.5125 140.1323 306.84064Q140.21042 307.16876 140.21042 307.34064Q140.21042 307.60626 140.03854 307.77814Q139.8823 307.9344 139.6323 307.9344ZM150.77292 312.46564Q150.6323 312.46564 150.36667 312.3719Q150.10104 312.27814 149.96042 312.27814Q149.64792 312.27814 149.05417 312.325Q148.46042 312.35626 148.14792 312.35626Q147.92917 312.35626 147.47604 312.41876Q147.02292 312.46564 146.80417 312.46564Q146.74167 312.46564 146.61667 312.45Q146.49167 312.41876 146.42917 312.41876Q146.02292 312.41876 145.89792 312.02814Q145.83542 311.825 145.83542 311.325Q145.83542 309.96564 146.5698 309.1219Q146.91354 308.7469 148.41354 307.71564Q149.24167 307.15314 149.52292 306.825Q150.02292 306.2625 150.02292 305.5125Q150.02292 305.1375 149.53854 304.84064Q149.11667 304.575 148.71042 304.575Q148.16354 304.575 147.67917 304.8875L146.83542 305.54376Q146.58542 305.7469 146.4448 305.7469Q145.83542 305.7469 145.83542 305.2625Q145.83542 304.98126 146.05417 304.77814Q146.74167 304.1375 147.24167 303.85626Q147.96042 303.45 148.71042 303.45Q149.64792 303.45 150.39792 303.96564Q151.22604 304.54376 151.22604 305.45Q151.22604 306.04376 151.05417 306.5594Q150.89792 307.0594 150.53854 307.48126Q150.10104 307.9969 149.05417 308.65314Q147.96042 309.34064 147.61667 309.7Q146.96042 310.3719 146.97604 311.34064L148.17917 311.23126Q149.41354 311.15314 149.96042 311.15314Q150.39792 311.15314 150.80417 311.3094Q151.3198 311.5125 151.3198 311.8719Q151.3198 312.10626 151.16354 312.29376Q151.0073 312.46564 150.77292 312.46564ZM155.4448 312.6844Q153.66354 312.6844 152.85104 311.04376Q152.22604 309.79376 152.22604 307.77814Q152.22604 306.09064 153.03854 304.825Q153.99167 303.34064 155.6323 303.34064Q157.16354 303.34064 158.03854 304.65314Q158.77292 305.79376 158.77292 307.41876Q158.77292 310.04376 157.9448 311.3719Q157.11667 312.6844 155.4448 312.6844ZM155.61667 304.46564Q154.53854 304.46564 153.89792 305.575Q153.36667 306.4969 153.36667 307.6844Q153.36667 309.6219 153.8823 310.59064Q154.39792 311.5594 155.4448 311.5594Q156.6948 311.5594 157.22604 310.1375Q157.60104 309.15314 157.60104 307.6375Q157.60104 306.04376 157.10104 305.2625Q156.61667 304.46564 155.61667 304.46564Z" fill-rule="nonzero"/><path fill="#000000" d="M177.17674 304.79376L176.6455 305.41876Q175.87987 306.3094 175.23924 307.575L174.17674 309.91876Q174.06737 310.16876 173.67674 311.2625Q173.37987 312.1375 173.11424 312.5594Q172.94237 312.84064 172.6455 312.84064Q172.41112 312.84064 172.22362 312.66876Q172.05174 312.5125 172.05174 312.27814Q172.05174 312.0594 172.42674 311.1375L173.73924 307.90314Q174.61424 305.9969 175.53612 304.95L175.6455 304.825L172.708 304.77814L171.3955 304.73126Q170.81737 304.6844 170.81737 304.16876Q170.81737 303.9344 170.97362 303.77814Q171.1455 303.60626 171.3955 303.60626Q172.12987 303.60626 173.61424 303.65314Q175.09862 303.7 175.833 303.7L176.91112 303.7Q177.5205 303.7 177.5205 304.075Q177.5205 304.35626 177.17674 304.79376ZM180.98924 312.6844Q179.208 312.6844 178.3955 311.04376Q177.7705 309.79376 177.7705 307.77814Q177.7705 306.09064 178.583 304.825Q179.53612 303.34064 181.17674 303.34064Q182.708 303.34064 183.583 304.65314Q184.31737 305.79376 184.31737 307.41876Q184.31737 310.04376 183.48924 311.3719Q182.66112 312.6844 180.98924 312.6844ZM181.16112 304.46564Q180.083 304.46564 179.44237 305.575Q178.91112 306.4969 178.91112 307.6844Q178.91112 309.6219 179.42674 310.59064Q179.94237 311.5594 180.98924 311.5594Q182.23924 311.5594 182.7705 310.1375Q183.1455 309.15314 183.1455 307.6375Q183.1455 306.04376 182.6455 305.2625Q182.16112 304.46564 181.16112 304.46564ZM191.92674 312.1375Q191.91112 312.6844 191.3955 312.6844Q190.97362 312.6844 190.7705 312.1844L189.87987 309.79376L188.833 307.10626Q188.7705 306.96564 188.7705 306.84064Q188.7705 306.60626 188.958 306.4344Q189.1455 306.2625 189.37987 306.2625Q189.72362 306.2625 189.87987 306.6219L191.36424 310.71564Q191.81737 309.77814 192.47362 307.9969Q192.62987 307.52814 192.97362 306.66876Q193.16112 306.29376 193.48924 306.29376Q193.73924 306.29376 193.91112 306.46564Q194.09862 306.6375 194.09862 306.8719Q194.09862 307.09064 193.12987 309.3719L191.92674 312.1375ZM199.17674 307.9344Q198.86424 307.9344 198.72362 307.71564Q198.6455 307.575 198.583 307.09064Q198.1455 307.2 197.22362 307.4969Q196.28612 307.8719 196.2705 308.41876Q196.458 308.48126 196.61424 308.5125Q197.97362 308.7625 198.62987 309.1844Q199.583 309.79376 199.583 310.96564Q199.583 311.91876 198.75487 312.40314Q198.06737 312.8094 197.0205 312.8094Q196.25487 312.8094 195.55174 312.54376Q194.6455 312.21564 194.6455 311.6219Q194.6455 311.3875 194.833 311.21564Q195.0205 311.04376 195.25487 311.04376Q195.44237 311.04376 195.72362 311.325Q195.86424 311.46564 196.36424 311.54376Q196.75487 311.6219 197.0205 311.6219Q197.50487 311.6219 197.87987 311.4969Q198.42674 311.325 198.42674 310.96564Q198.42674 310.16876 197.31737 309.8875L196.708 309.7469Q195.92674 309.575 195.59862 309.35626Q195.12987 309.02814 195.12987 308.35626Q195.12987 307.1375 196.28612 306.60626Q196.62987 306.45 197.3955 306.23126Q198.17674 306.0125 198.5205 305.85626Q198.75487 305.7625 199.03612 305.7625Q199.28612 305.7625 199.44237 305.9344Q199.61424 306.09064 199.61424 306.35626Q199.61424 306.5125 199.67674 306.84064Q199.75487 307.16876 199.75487 307.34064Q199.75487 307.60626 199.583 307.77814Q199.42674 307.9344 199.17674 307.9344ZM207.958 312.71564Q207.06737 312.71564 206.36424 312.35626Q205.583 311.91876 205.30174 311.15314Q205.2705 311.04376 205.2705 310.95Q205.2705 310.71564 205.44237 310.5594Q205.62987 310.40314 205.86424 310.40314Q206.09862 310.40314 206.2705 310.6219L206.53612 311.0125Q206.73924 311.3094 207.09862 311.45Q207.458 311.59064 207.958 311.59064Q208.59862 311.59064 209.083 311.2Q209.583 310.77814 209.583 310.16876Q209.583 309.27814 208.94237 308.7469Q208.36424 308.29376 207.41112 308.2Q206.75487 308.1375 206.75487 307.66876Q206.75487 307.325 207.2705 307.1375L208.67674 306.79376Q209.083 306.65314 209.28612 306.40314Q209.48924 306.15314 209.48924 305.79376Q209.50487 305.27814 209.09862 304.96564Q208.66112 304.6375 207.8955 304.6375Q207.48924 304.6375 207.11424 304.825L206.458 305.2469Q206.2705 305.3719 206.1455 305.3719Q205.91112 305.3719 205.73924 305.2Q205.583 305.0125 205.583 304.77814Q205.583 304.3094 206.47362 303.8875Q207.25487 303.5125 207.75487 303.5125Q209.0205 303.5125 209.75487 304.0594Q210.55174 304.66876 210.55174 305.7625Q210.55174 307.15314 209.42674 307.59064Q209.333 307.6219 209.208 307.66876Q209.98924 307.95 210.36424 308.52814Q210.75487 309.09064 210.75487 309.95Q210.75487 311.10626 209.94237 311.91876Q209.12987 312.71564 207.958 312.71564ZM214.98924 312.6844Q213.208 312.6844 212.3955 311.04376Q211.7705 309.79376 211.7705 307.77814Q211.7705 306.09064 212.583 304.825Q213.53612 303.34064 215.17674 303.34064Q216.708 303.34064 217.583 304.65314Q218.31737 305.79376 218.31737 307.41876Q218.31737 310.04376 217.48924 311.3719Q216.66112 312.6844 214.98924 312.6844ZM215.16112 304.46564Q214.083 304.46564 213.44237 305.575Q212.91112 306.4969 212.91112 307.6844Q212.91112 309.6219 213.42674 310.59064Q213.94237 311.5594 214.98924 311.5594Q216.23924 311.5594 216.7705 310.1375Q217.1455 309.15314 217.1455 307.6375Q217.1455 306.04376 216.6455 305.2625Q216.16112 304.46564 215.16112 304.46564Z" fill-rule="nonzero"/><path fill="#000000" d="M233.45555 312.8719Q231.9243 312.8719 231.20555 311.7469Q230.6118 310.825 230.6118 309.29376Q230.6118 306.40314 232.95555 304.27814L233.50243 303.71564Q233.90868 303.325 234.1118 303.325Q234.34618 303.325 234.51805 303.4969Q234.70555 303.66876 234.70555 303.8875Q234.72118 304.10626 234.1118 304.71564L232.90868 305.8719Q232.43993 306.35626 232.09618 307.325Q232.6118 307.09064 232.9868 306.98126Q233.37743 306.8719 233.6118 306.8719Q234.9868 306.8719 235.72118 307.60626Q236.45555 308.325 236.45555 309.66876Q236.45555 311.0594 235.65868 311.95Q234.83055 312.8719 233.45555 312.8719ZM233.45555 308.0594Q232.95555 308.0594 232.5493 308.23126Q232.39305 308.3094 231.78368 308.6844Q231.75243 308.9969 231.75243 309.29376Q231.75243 310.34064 232.09618 311.0125Q232.5493 311.85626 233.4868 311.85626Q234.37743 311.85626 234.8618 311.21564Q235.31493 310.6375 235.31493 309.66876Q235.31493 308.85626 234.84618 308.46564Q234.39305 308.0594 233.45555 308.0594ZM240.53368 312.6844Q238.75243 312.6844 237.93993 311.04376Q237.31493 309.79376 237.31493 307.77814Q237.31493 306.09064 238.12743 304.825Q239.08055 303.34064 240.72118 303.34064Q242.25243 303.34064 243.12743 304.65314Q243.8618 305.79376 243.8618 307.41876Q243.8618 310.04376 243.03368 311.3719Q242.20555 312.6844 240.53368 312.6844ZM240.70555 304.46564Q239.62743 304.46564 238.9868 305.575Q238.45555 306.4969 238.45555 307.6844Q238.45555 309.6219 238.97118 310.59064Q239.4868 311.5594 240.53368 311.5594Q241.78368 311.5594 242.31493 310.1375Q242.68993 309.15314 242.68993 307.6375Q242.68993 306.04376 242.18993 305.2625Q241.70555 304.46564 240.70555 304.46564ZM251.47118 312.1375Q251.45555 312.6844 250.93993 312.6844Q250.51805 312.6844 250.31493 312.1844L249.4243 309.79376L248.37743 307.10626Q248.31493 306.96564 248.31493 306.84064Q248.31493 306.60626 248.50243 306.4344Q248.68993 306.2625 248.9243 306.2625Q249.26805 306.2625 249.4243 306.6219L250.90868 310.71564Q251.3618 309.77814 252.01805 307.9969Q252.1743 307.52814 252.51805 306.66876Q252.70555 306.29376 253.03368 306.29376Q253.28368 306.29376 253.45555 306.46564Q253.64305 306.6375 253.64305 306.8719Q253.64305 307.09064 252.6743 309.3719L251.47118 312.1375ZM258.7212 307.9344Q258.4087 307.9344 258.26807 307.71564Q258.18994 307.575 258.12744 307.09064Q257.68994 307.2 256.76807 307.4969Q255.83055 307.8719 255.81493 308.41876Q256.00244 308.48126 256.1587 308.5125Q257.51807 308.7625 258.17432 309.1844Q259.12744 309.79376 259.12744 310.96564Q259.12744 311.91876 258.29932 312.40314Q257.61182 312.8094 256.56494 312.8094Q255.7993 312.8094 255.09618 312.54376Q254.18993 312.21564 254.18993 311.6219Q254.18993 311.3875 254.37743 311.21564Q254.56493 311.04376 254.7993 311.04376Q254.9868 311.04376 255.26805 311.325Q255.40868 311.46564 255.90868 311.54376Q256.29932 311.6219 256.56494 311.6219Q257.04932 311.6219 257.42432 311.4969Q257.9712 311.325 257.9712 310.96564Q257.9712 310.16876 256.86182 309.8875L256.25244 309.7469Q255.47118 309.575 255.14305 309.35626Q254.6743 309.02814 254.6743 308.35626Q254.6743 307.1375 255.83055 306.60626Q256.17432 306.45 256.93994 306.23126Q257.7212 306.0125 258.06494 305.85626Q258.29932 305.7625 258.58057 305.7625Q258.83057 305.7625 258.98682 305.9344Q259.1587 306.09064 259.1587 306.35626Q259.1587 306.5125 259.2212 306.84064Q259.29932 307.16876 259.29932 307.34064Q259.29932 307.60626 259.12744 307.77814Q258.9712 307.9344 258.7212 307.9344ZM269.61182 309.8875L269.61182 312.0594Q269.61182 312.60626 269.06494 312.60626Q268.45557 312.60626 268.45557 311.7469Q268.45557 311.65314 268.45557 311.46564Q268.4712 311.2625 268.4712 311.1844L268.4712 309.85626L265.87744 309.79376Q265.08057 309.79376 264.76807 309.7469Q264.23682 309.65314 264.23682 309.325Q264.23682 309.0594 264.56494 308.65314L265.06494 308.0594L267.93994 303.85626Q268.3462 303.3094 268.93994 303.3094Q269.61182 303.3094 269.61182 303.8875L269.61182 308.7469Q269.70557 308.7469 269.8462 308.7469Q270.92432 308.7469 270.92432 309.325Q270.92432 309.7469 270.4712 309.85626Q270.2837 309.91876 269.61182 309.8875ZM268.4712 304.9344Q266.9087 307.4344 266.01807 308.66876L268.4712 308.73126L268.4712 304.9344ZM274.5337 312.6844Q272.75244 312.6844 271.93994 311.04376Q271.31494 309.79376 271.31494 307.77814Q271.31494 306.09064 272.12744 304.825Q273.08057 303.34064 274.7212 303.34064Q276.25244 303.34064 277.12744 304.65314Q277.86182 305.79376 277.86182 307.41876Q277.86182 310.04376 277.0337 311.3719Q276.20557 312.6844 274.5337 312.6844ZM274.70557 304.46564Q273.62744 304.46564 272.98682 305.575Q272.45557 306.4969 272.45557 307.6844Q272.45557 309.6219 272.9712 310.59064Q273.48682 311.5594 274.5337 311.5594Q275.7837 311.5594 276.31494 310.1375Q276.68994 309.15314 276.68994 307.6375Q276.68994 306.04376 276.18994 305.2625Q275.70557 304.46564 274.70557 304.46564Z" fill-rule="nonzero"/><path fill="#000000" d="M292.79688 312.825Q291.125 312.825 290.34375 311.59064Q290.23438 311.41876 290.23438 311.2625Q290.23438 311.02814 290.42188 310.8719Q290.60938 310.7 290.82812 310.7Q291.07812 310.7 291.28125 310.95Q291.59375 311.325 291.75 311.4344Q292.14062 311.7 292.79688 311.7Q293.8125 311.7 294.46875 310.91876Q295.10938 310.1844 295.10938 309.1375Q295.10938 308.29376 294.82812 307.7625Q294.46875 307.075 293.71875 307.075Q293.09375 307.075 292.6875 307.2469Q292.375 307.3875 292.04688 307.71564L291.40625 308.41876Q291.15625 308.66876 290.89062 308.66876Q290.65625 308.66876 290.48438 308.5125Q290.32812 308.34064 290.32812 308.10626Q290.32812 307.9969 290.42188 307.0594Q290.60938 305.21564 290.60938 304.6375Q290.60938 304.4344 290.5 304.2Q290.40625 303.95 290.40625 303.825Q290.40625 303.46564 291.03125 303.46564Q291.14062 303.46564 291.375 303.4969Q291.60938 303.5125 291.73438 303.5125Q292.07812 303.5125 292.75 303.4969Q293.4375 303.46564 293.76562 303.46564Q293.9375 303.46564 294.25 303.48126Q294.57812 303.4969 294.73438 303.4969Q294.84375 303.4969 295.04688 303.45Q295.26562 303.40314 295.375 303.40314Q295.59375 303.40314 295.76562 303.575Q295.95312 303.7469 295.95312 303.96564Q295.95312 304.6219 294.5625 304.6219Q294.375 304.6219 294.09375 304.60626Q293.82812 304.59064 293.76562 304.59064L292.78125 304.6219L291.79688 304.6375Q291.79688 304.90314 291.57812 306.59064Q292.375 305.95 293.71875 305.95Q295.0 305.95 295.6875 306.96564Q296.25 307.825 296.25 309.1375Q296.25 310.73126 295.32812 311.7469Q294.375 312.825 292.79688 312.825ZM300.07812 312.6844Q298.29688 312.6844 297.48438 311.04376Q296.85938 309.79376 296.85938 307.77814Q296.85938 306.09064 297.67188 304.825Q298.625 303.34064 300.26562 303.34064Q301.79688 303.34064 302.67188 304.65314Q303.40625 305.79376 303.40625 307.41876Q303.40625 310.04376 302.57812 311.3719Q301.75 312.6844 300.07812 312.6844ZM300.25 304.46564Q299.17188 304.46564 298.53125 305.575Q298.0 306.4969 298.0 307.6844Q298.0 309.6219 298.51562 310.59064Q299.03125 311.5594 300.07812 311.5594Q301.32812 311.5594 301.85938 310.1375Q302.23438 309.15314 302.23438 307.6375Q302.23438 306.04376 301.73438 305.2625Q301.25 304.46564 300.25 304.46564ZM311.01562 312.1375Q311.0 312.6844 310.48438 312.6844Q310.0625 312.6844 309.85938 312.1844L308.96875 309.79376L307.92188 307.10626Q307.85938 306.96564 307.85938 306.84064Q307.85938 306.60626 308.04688 306.4344Q308.23438 306.2625 308.46875 306.2625Q308.8125 306.2625 308.96875 306.6219L310.45312 310.71564Q310.90625 309.77814 311.5625 307.9969Q311.71875 307.52814 312.0625 306.66876Q312.25 306.29376 312.57812 306.29376Q312.82812 306.29376 313.0 306.46564Q313.1875 306.6375 313.1875 306.8719Q313.1875 307.09064 312.21875 309.3719L311.01562 312.1375ZM318.26562 307.9344Q317.95312 307.9344 317.8125 307.71564Q317.73438 307.575 317.67188 307.09064Q317.23438 307.2 316.3125 307.4969Q315.375 307.8719 315.35938 308.41876Q315.54688 308.48126 315.70312 308.5125Q317.0625 308.7625 317.71875 309.1844Q318.67188 309.79376 318.67188 310.96564Q318.67188 311.91876 317.84375 312.40314Q317.15625 312.8094 316.10938 312.8094Q315.34375 312.8094 314.64062 312.54376Q313.73438 312.21564 313.73438 311.6219Q313.73438 311.3875 313.92188 311.21564Q314.10938 311.04376 314.34375 311.04376Q314.53125 311.04376 314.8125 311.325Q314.95312 311.46564 315.45312 311.54376Q315.84375 311.6219 316.10938 311.6219Q316.59375 311.6219 316.96875 311.4969Q317.51562 311.325 317.51562 310.96564Q317.51562 310.16876 316.40625 309.8875L315.79688 309.7469Q315.01562 309.575 314.6875 309.35626Q314.21875 309.02814 314.21875 308.35626Q314.21875 307.1375 315.375 306.60626Q315.71875 306.45 316.48438 306.23126Q317.26562 306.0125 317.60938 305.85626Q317.84375 305.7625 318.125 305.7625Q318.375 305.7625 318.53125 305.9344Q318.70312 306.09064 318.70312 306.35626Q318.70312 306.5125 318.76562 306.84064Q318.84375 307.16876 318.84375 307.34064Q318.84375 307.60626 318.67188 307.77814Q318.51562 307.9344 318.26562 307.9344ZM326.79688 312.825Q325.125 312.825 324.34375 311.59064Q324.23438 311.41876 324.23438 311.2625Q324.23438 311.02814 324.42188 310.8719Q324.60938 310.7 324.82812 310.7Q325.07812 310.7 325.28125 310.95Q325.59375 311.325 325.75 311.4344Q326.14062 311.7 326.79688 311.7Q327.8125 311.7 328.46875 310.91876Q329.10938 310.1844 329.10938 309.1375Q329.10938 308.29376 328.82812 307.7625Q328.46875 307.075 327.71875 307.075Q327.09375 307.075 326.6875 307.2469Q326.375 307.3875 326.04688 307.71564L325.40625 308.41876Q325.15625 308.66876 324.89062 308.66876Q324.65625 308.66876 324.48438 308.5125Q324.32812 308.34064 324.32812 308.10626Q324.32812 307.9969 324.42188 307.0594Q324.60938 305.21564 324.60938 304.6375Q324.60938 304.4344 324.5 304.2Q324.40625 303.95 324.40625 303.825Q324.40625 303.46564 325.03125 303.46564Q325.14062 303.46564 325.375 303.4969Q325.60938 303.5125 325.73438 303.5125Q326.07812 303.5125 326.75 303.4969Q327.4375 303.46564 327.76562 303.46564Q327.9375 303.46564 328.25 303.48126Q328.57812 303.4969 328.73438 303.4969Q328.84375 303.4969 329.04688 303.45Q329.26562 303.40314 329.375 303.40314Q329.59375 303.40314 329.76562 303.575Q329.95312 303.7469 329.95312 303.96564Q329.95312 304.6219 328.5625 304.6219Q328.375 304.6219 328.09375 304.60626Q327.82812 304.59064 327.76562 304.59064L326.78125 304.6219L325.79688 304.6375Q325.79688 304.90314 325.57812 306.59064Q326.375 305.95 327.71875 305.95Q329.0 305.95 329.6875 306.96564Q330.25 307.825 330.25 309.1375Q330.25 310.73126 329.32812 311.7469Q328.375 312.825 326.79688 312.825ZM334.07812 312.6844Q332.29688 312.6844 331.48438 311.04376Q330.85938 309.79376 330.85938 307.77814Q330.85938 306.09064 331.67188 304.825Q332.625 303.34064 334.26562 303.34064Q335.79688 303.34064 336.67188 304.65314Q337.40625 305.79376 337.40625 307.41876Q337.40625 310.04376 336.57812 311.3719Q335.75 312.6844 334.07812 312.6844ZM334.25 304.46564Q333.17188 304.46564 332.53125 305.575Q332.0 306.4969 332.0 307.6844Q332.0 309.6219 332.51562 310.59064Q333.03125 311.5594 334.07812 311.5594Q335.32812 311.5594 335.85938 310.1375Q336.23438 309.15314 336.23438 307.6375Q336.23438 306.04376 335.73438 305.2625Q335.25 304.46564 334.25 304.46564Z" fill-rule="nonzero"/><path fill="#000000" d="M354.70068 309.8875L354.70068 312.0594Q354.70068 312.60626 354.1538 312.60626Q353.54443 312.60626 353.54443 311.7469Q353.54443 311.65314 353.54443 311.46564Q353.56006 311.2625 353.56006 311.1844L353.56006 309.85626L350.9663 309.79376Q350.16943 309.79376 349.85693 309.7469Q349.32568 309.65314 349.32568 309.325Q349.32568 309.0594 349.6538 308.65314L350.1538 308.0594L353.0288 303.85626Q353.43506 303.3094 354.0288 303.3094Q354.70068 303.3094 354.70068 303.8875L354.70068 308.7469Q354.79443 308.7469 354.93506 308.7469Q356.01318 308.7469 356.01318 309.325Q356.01318 309.7469 355.56006 309.85626Q355.37256 309.91876 354.70068 309.8875ZM353.56006 304.9344Q351.99756 307.4344 351.10693 308.66876L353.56006 308.73126L353.56006 304.9344ZM359.62256 312.6844Q357.8413 312.6844 357.0288 311.04376Q356.4038 309.79376 356.4038 307.77814Q356.4038 306.09064 357.2163 304.825Q358.16943 303.34064 359.81006 303.34064Q361.3413 303.34064 362.2163 304.65314Q362.95068 305.79376 362.95068 307.41876Q362.95068 310.04376 362.12256 311.3719Q361.29443 312.6844 359.62256 312.6844ZM359.79443 304.46564Q358.7163 304.46564 358.07568 305.575Q357.54443 306.4969 357.54443 307.6844Q357.54443 309.6219 358.06006 310.59064Q358.57568 311.5594 359.62256 311.5594Q360.87256 311.5594 361.4038 310.1375Q361.7788 309.15314 361.7788 307.6375Q361.7788 306.04376 361.2788 305.2625Q360.79443 304.46564 359.79443 304.46564ZM370.56006 312.1375Q370.54443 312.6844 370.0288 312.6844Q369.60693 312.6844 369.4038 312.1844L368.51318 309.79376L367.4663 307.10626Q367.4038 306.96564 367.4038 306.84064Q367.4038 306.60626 367.5913 306.4344Q367.7788 306.2625 368.01318 306.2625Q368.35693 306.2625 368.51318 306.6219L369.99756 310.71564Q370.45068 309.77814 371.10693 307.9969Q371.26318 307.52814 371.60693 306.66876Q371.79443 306.29376 372.12256 306.29376Q372.37256 306.29376 372.54443 306.46564Q372.73193 306.6375 372.73193 306.8719Q372.73193 307.09064 371.76318 309.3719L370.56006 312.1375ZM377.81006 307.9344Q377.49756 307.9344 377.35693 307.71564Q377.2788 307.575 377.2163 307.09064Q376.7788 307.2 375.85693 307.4969Q374.91943 307.8719 374.9038 308.41876Q375.0913 308.48126 375.24756 308.5125Q376.60693 308.7625 377.26318 309.1844Q378.2163 309.79376 378.2163 310.96564Q378.2163 311.91876 377.38818 312.40314Q376.70068 312.8094 375.6538 312.8094Q374.88818 312.8094 374.18506 312.54376Q373.2788 312.21564 373.2788 311.6219Q373.2788 311.3875 373.4663 311.21564Q373.6538 311.04376 373.88818 311.04376Q374.07568 311.04376 374.35693 311.325Q374.49756 311.46564 374.99756 311.54376Q375.38818 311.6219 375.6538 311.6219Q376.13818 311.6219 376.51318 311.4969Q377.06006 311.325 377.06006 310.96564Q377.06006 310.16876 375.95068 309.8875L375.3413 309.7469Q374.56006 309.575 374.23193 309.35626Q373.76318 309.02814 373.76318 308.35626Q373.76318 307.1375 374.91943 306.60626Q375.26318 306.45 376.0288 306.23126Q376.81006 306.0125 377.1538 305.85626Q377.38818 305.7625 377.66943 305.7625Q377.91943 305.7625 378.07568 305.9344Q378.24756 306.09064 378.24756 306.35626Q378.24756 306.5125 378.31006 306.84064Q378.38818 307.16876 378.38818 307.34064Q378.38818 307.60626 378.2163 307.77814Q378.06006 307.9344 377.81006 307.9344ZM386.54443 312.8719Q385.01318 312.8719 384.29443 311.7469Q383.70068 310.825 383.70068 309.29376Q383.70068 306.40314 386.04443 304.27814L386.5913 303.71564Q386.99756 303.325 387.20068 303.325Q387.43506 303.325 387.60693 303.4969Q387.79443 303.66876 387.79443 303.8875Q387.81006 304.10626 387.20068 304.71564L385.99756 305.8719Q385.5288 306.35626 385.18506 307.325Q385.70068 307.09064 386.07568 306.98126Q386.4663 306.8719 386.70068 306.8719Q388.07568 306.8719 388.81006 307.60626Q389.54443 308.325 389.54443 309.66876Q389.54443 311.0594 388.74756 311.95Q387.91943 312.8719 386.54443 312.8719ZM386.54443 308.0594Q386.04443 308.0594 385.63818 308.23126Q385.48193 308.3094 384.87256 308.6844Q384.8413 308.9969 384.8413 309.29376Q384.8413 310.34064 385.18506 311.0125Q385.63818 311.85626 386.57568 311.85626Q387.4663 311.85626 387.95068 311.21564Q388.4038 310.6375 388.4038 309.66876Q388.4038 308.85626 387.93506 308.46564Q387.48193 308.0594 386.54443 308.0594ZM393.62256 312.6844Q391.8413 312.6844 391.0288 311.04376Q390.4038 309.79376 390.4038 307.77814Q390.4038 306.09064 391.2163 304.825Q392.16943 303.34064 393.81006 303.34064Q395.3413 303.34064 396.2163 304.65314Q396.95068 305.79376 396.95068 307.41876Q396.95068 310.04376 396.12256 311.3719Q395.29443 312.6844 393.62256 312.6844ZM393.79443 304.46564Q392.7163 304.46564 392.07568 305.575Q391.54443 306.4969 391.54443 307.6844Q391.54443 309.6219 392.06006 310.59064Q392.57568 311.5594 393.62256 311.5594Q394.87256 311.5594 395.4038 310.1375Q395.7788 309.15314 395.7788 307.6375Q395.7788 306.04376 395.2788 305.2625Q394.79443 304.46564 393.79443 304.46564Z" fill-rule="nonzero"/><path fill="#000000" d="M412.13577 312.71564Q411.24515 312.71564 410.54202 312.35626Q409.76077 311.91876 409.47952 311.15314Q409.44827 311.04376 409.44827 310.95Q409.44827 310.71564 409.62015 310.5594Q409.80765 310.40314 410.04202 310.40314Q410.2764 310.40314 410.44827 310.6219L410.7139 311.0125Q410.91702 311.3094 411.2764 311.45Q411.63577 311.59064 412.13577 311.59064Q412.7764 311.59064 413.26077 311.2Q413.76077 310.77814 413.76077 310.16876Q413.76077 309.27814 413.12015 308.7469Q412.54202 308.29376 411.5889 308.2Q410.93265 308.1375 410.93265 307.66876Q410.93265 307.325 411.44827 307.1375L412.85452 306.79376Q413.26077 306.65314 413.4639 306.40314Q413.66702 306.15314 413.66702 305.79376Q413.68265 305.27814 413.2764 304.96564Q412.8389 304.6375 412.07327 304.6375Q411.66702 304.6375 411.29202 304.825L410.63577 305.2469Q410.44827 305.3719 410.32327 305.3719Q410.0889 305.3719 409.91702 305.2Q409.76077 305.0125 409.76077 304.77814Q409.76077 304.3094 410.6514 303.8875Q411.43265 303.5125 411.93265 303.5125Q413.19827 303.5125 413.93265 304.0594Q414.72952 304.66876 414.72952 305.7625Q414.72952 307.15314 413.60452 307.59064Q413.51077 307.6219 413.38577 307.66876Q414.16702 307.95 414.54202 308.52814Q414.93265 309.09064 414.93265 309.95Q414.93265 311.10626 414.12015 311.91876Q413.30765 312.71564 412.13577 312.71564ZM419.16702 312.6844Q417.38577 312.6844 416.57327 311.04376Q415.94827 309.79376 415.94827 307.77814Q415.94827 306.09064 416.76077 304.825Q417.7139 303.34064 419.35452 303.34064Q420.88577 303.34064 421.76077 304.65314Q422.49515 305.79376 422.49515 307.41876Q422.49515 310.04376 421.66702 311.3719Q420.8389 312.6844 419.16702 312.6844ZM419.3389 304.46564Q418.26077 304.46564 417.62015 305.575Q417.0889 306.4969 417.0889 307.6844Q417.0889 309.6219 417.60452 310.59064Q418.12015 311.5594 419.16702 311.5594Q420.41702 311.5594 420.94827 310.1375Q421.32327 309.15314 421.32327 307.6375Q421.32327 306.04376 420.82327 305.2625Q420.3389 304.46564 419.3389 304.46564ZM430.10452 312.1375Q430.0889 312.6844 429.57327 312.6844Q429.1514 312.6844 428.94827 312.1844L428.05765 309.79376L427.01077 307.10626Q426.94827 306.96564 426.94827 306.84064Q426.94827 306.60626 427.13577 306.4344Q427.32327 306.2625 427.55765 306.2625Q427.9014 306.2625 428.05765 306.6219L429.54202 310.71564Q429.99515 309.77814 430.6514 307.9969Q430.80765 307.52814 431.1514 306.66876Q431.3389 306.29376 431.66702 306.29376Q431.91702 306.29376 432.0889 306.46564Q432.2764 306.6375 432.2764 306.8719Q432.2764 307.09064 431.30765 309.3719L430.10452 312.1375ZM437.35452 307.9344Q437.04202 307.9344 436.9014 307.71564Q436.82327 307.575 436.76077 307.09064Q436.32327 307.2 435.4014 307.4969Q434.4639 307.8719 434.44827 308.41876Q434.63577 308.48126 434.79202 308.5125Q436.1514 308.7625 436.80765 309.1844Q437.76077 309.79376 437.76077 310.96564Q437.76077 311.91876 436.93265 312.40314Q436.24515 312.8094 435.19827 312.8094Q434.43265 312.8094 433.72952 312.54376Q432.82327 312.21564 432.82327 311.6219Q432.82327 311.3875 433.01077 311.21564Q433.19827 311.04376 433.43265 311.04376Q433.62015 311.04376 433.9014 311.325Q434.04202 311.46564 434.54202 311.54376Q434.93265 311.6219 435.19827 311.6219Q435.68265 311.6219 436.05765 311.4969Q436.60452 311.325 436.60452 310.96564Q436.60452 310.16876 435.49515 309.8875L434.88577 309.7469Q434.10452 309.575 433.7764 309.35626Q433.30765 309.02814 433.30765 308.35626Q433.30765 307.1375 434.4639 306.60626Q434.80765 306.45 435.57327 306.23126Q436.35452 306.0125 436.69827 305.85626Q436.93265 305.7625 437.2139 305.7625Q437.4639 305.7625 437.62015 305.9344Q437.79202 306.09064 437.79202 306.35626Q437.79202 306.5125 437.85452 306.84064Q437.93265 307.16876 437.93265 307.34064Q437.93265 307.60626 437.76077 307.77814Q437.60452 307.9344 437.35452 307.9344ZM449.35452 304.79376L448.82327 305.41876Q448.05765 306.3094 447.41702 307.575L446.35452 309.91876Q446.24515 310.16876 445.85452 311.2625Q445.55765 312.1375 445.29202 312.5594Q445.12015 312.84064 444.82327 312.84064Q444.5889 312.84064 444.4014 312.66876Q444.22952 312.5125 444.22952 312.27814Q444.22952 312.0594 444.60452 311.1375L445.91702 307.90314Q446.79202 305.9969 447.7139 304.95L447.82327 304.825L444.88577 304.77814L443.57327 304.73126Q442.99515 304.6844 442.99515 304.16876Q442.99515 303.9344 443.1514 303.77814Q443.32327 303.60626 443.57327 303.60626Q444.30765 303.60626 445.79202 303.65314Q447.2764 303.7 448.01077 303.7L449.0889 303.7Q449.69827 303.7 449.69827 304.075Q449.69827 304.35626 449.35452 304.79376ZM453.16702 312.6844Q451.38577 312.6844 450.57327 311.04376Q449.94827 309.79376 449.94827 307.77814Q449.94827 306.09064 450.76077 304.825Q451.7139 303.34064 453.35452 303.34064Q454.88577 303.34064 455.76077 304.65314Q456.49515 305.79376 456.49515 307.41876Q456.49515 310.04376 455.66702 311.3719Q454.8389 312.6844 453.16702 312.6844ZM453.3389 304.46564Q452.26077 304.46564 451.62015 305.575Q451.0889 306.4969 451.0889 307.6844Q451.0889 309.6219 451.60452 310.59064Q452.12015 311.5594 453.16702 311.5594Q454.41702 311.5594 454.94827 310.1375Q455.32327 309.15314 455.32327 307.6375Q455.32327 306.04376 454.82327 305.2625Q454.3389 304.46564 453.3389 304.46564Z" fill-rule="nonzero"/><path fill="#000000" d="M474.03958 312.46564Q473.89896 312.46564 473.63333 312.3719Q473.3677 312.27814 473.22708 312.27814Q472.91458 312.27814 472.32083 312.325Q471.72708 312.35626 471.41458 312.35626Q471.19583 312.35626 470.7427 312.41876Q470.28958 312.46564 470.07083 312.46564Q470.00833 312.46564 469.88333 312.45Q469.75833 312.41876 469.69583 312.41876Q469.28958 312.41876 469.16458 312.02814Q469.10208 311.825 469.10208 311.325Q469.10208 309.96564 469.83646 309.1219Q470.1802 308.7469 471.6802 307.71564Q472.50833 307.15314 472.78958 306.825Q473.28958 306.2625 473.28958 305.5125Q473.28958 305.1375 472.8052 304.84064Q472.38333 304.575 471.97708 304.575Q471.4302 304.575 470.94583 304.8875L470.10208 305.54376Q469.85208 305.7469 469.71146 305.7469Q469.10208 305.7469 469.10208 305.2625Q469.10208 304.98126 469.32083 304.77814Q470.00833 304.1375 470.50833 303.85626Q471.22708 303.45 471.97708 303.45Q472.91458 303.45 473.66458 303.96564Q474.4927 304.54376 474.4927 305.45Q474.4927 306.04376 474.32083 306.5594Q474.16458 307.0594 473.8052 307.48126Q473.3677 307.9969 472.32083 308.65314Q471.22708 309.34064 470.88333 309.7Q470.22708 310.3719 470.2427 311.34064L471.44583 311.23126Q472.6802 311.15314 473.22708 311.15314Q473.66458 311.15314 474.07083 311.3094Q474.58646 311.5125 474.58646 311.8719Q474.58646 312.10626 474.4302 312.29376Q474.27396 312.46564 474.03958 312.46564ZM478.71146 312.6844Q476.9302 312.6844 476.1177 311.04376Q475.4927 309.79376 475.4927 307.77814Q475.4927 306.09064 476.3052 304.825Q477.25833 303.34064 478.89896 303.34064Q480.4302 303.34064 481.3052 304.65314Q482.03958 305.79376 482.03958 307.41876Q482.03958 310.04376 481.21146 311.3719Q480.38333 312.6844 478.71146 312.6844ZM478.88333 304.46564Q477.8052 304.46564 477.16458 305.575Q476.63333 306.4969 476.63333 307.6844Q476.63333 309.6219 477.14896 310.59064Q477.66458 311.5594 478.71146 311.5594Q479.96146 311.5594 480.4927 310.1375Q480.8677 309.15314 480.8677 307.6375Q480.8677 306.04376 480.3677 305.2625Q479.88333 304.46564 478.88333 304.46564ZM489.64896 312.1375Q489.63333 312.6844 489.1177 312.6844Q488.69583 312.6844 488.4927 312.1844L487.60208 309.79376L486.5552 307.10626Q486.4927 306.96564 486.4927 306.84064Q486.4927 306.60626 486.6802 306.4344Q486.8677 306.2625 487.10208 306.2625Q487.44583 306.2625 487.60208 306.6219L489.08646 310.71564Q489.53958 309.77814 490.19583 307.9969Q490.35208 307.52814 490.69583 306.66876Q490.88333 306.29376 491.21146 306.29376Q491.46146 306.29376 491.63333 306.46564Q491.82083 306.6375 491.82083 306.8719Q491.82083 307.09064 490.85208 309.3719L489.64896 312.1375ZM496.89896 307.9344Q496.58646 307.9344 496.44583 307.71564Q496.3677 307.575 496.3052 307.09064Q495.8677 307.2 494.94583 307.4969Q494.00833 307.8719 493.9927 308.41876Q494.1802 308.48126 494.33646 308.5125Q495.69583 308.7625 496.35208 309.1844Q497.3052 309.79376 497.3052 310.96564Q497.3052 311.91876 496.47708 312.40314Q495.78958 312.8094 494.7427 312.8094Q493.97708 312.8094 493.27396 312.54376Q492.3677 312.21564 492.3677 311.6219Q492.3677 311.3875 492.5552 311.21564Q492.7427 311.04376 492.97708 311.04376Q493.16458 311.04376 493.44583 311.325Q493.58646 311.46564 494.08646 311.54376Q494.47708 311.6219 494.7427 311.6219Q495.22708 311.6219 495.60208 311.4969Q496.14896 311.325 496.14896 310.96564Q496.14896 310.16876 495.03958 309.8875L494.4302 309.7469Q493.64896 309.575 493.32083 309.35626Q492.85208 309.02814 492.85208 308.35626Q492.85208 307.1375 494.00833 306.60626Q494.35208 306.45 495.1177 306.23126Q495.89896 306.0125 496.2427 305.85626Q496.47708 305.7625 496.75833 305.7625Q497.00833 305.7625 497.16458 305.9344Q497.33646 306.09064 497.33646 306.35626Q497.33646 306.5125 497.39896 306.84064Q497.47708 307.16876 497.47708 307.34064Q497.47708 307.60626 497.3052 307.77814Q497.14896 307.9344 496.89896 307.9344ZM505.72708 312.7625Q504.4927 312.7625 503.72708 312.23126Q502.8677 311.6219 502.85208 310.4344Q502.82083 308.54376 504.1802 307.85626Q503.13333 307.23126 503.13333 306.0594Q503.13333 304.95 503.94583 304.21564Q504.71146 303.5125 505.8052 303.5125Q508.25833 303.48126 508.25833 305.9344Q508.25833 306.6375 507.97708 307.02814Q507.75833 307.34064 507.10208 307.66876Q507.97708 308.10626 508.32083 308.6219Q508.72708 309.21564 508.72708 310.2625Q508.72708 311.46564 507.85208 312.1375Q507.02396 312.7625 505.72708 312.7625ZM505.78958 304.5594Q505.02396 304.5594 504.63333 304.98126Q504.27396 305.3875 504.27396 306.0594Q504.28958 306.8875 505.63333 307.23126Q506.33646 307.02814 506.63333 306.825Q507.1177 306.4969 507.1177 305.9344Q507.1177 305.1375 506.75833 304.825Q506.46146 304.5594 505.78958 304.5594ZM505.6802 308.2625Q504.7427 308.7 504.4302 309.0125Q503.94583 309.4969 503.97708 310.3875Q504.00833 311.1219 504.64896 311.48126Q505.13333 311.7469 505.72708 311.7469Q506.75833 311.7469 507.1802 311.2469Q507.50833 310.8719 507.50833 310.075Q507.50833 309.3094 506.89896 308.84064Q506.50833 308.52814 505.6802 308.2625ZM512.7114 312.6844Q510.9302 312.6844 510.1177 311.04376Q509.4927 309.79376 509.4927 307.77814Q509.4927 306.09064 510.3052 304.825Q511.25833 303.34064 512.8989 303.34064Q514.4302 303.34064 515.3052 304.65314Q516.03955 305.79376 516.03955 307.41876Q516.03955 310.04376 515.2114 311.3719Q514.3833 312.6844 512.7114 312.6844ZM512.8833 304.46564Q511.8052 304.46564 511.16458 305.575Q510.63333 306.4969 510.63333 307.6844Q510.63333 309.6219 511.14896 310.59064Q511.66458 311.5594 512.7114 311.5594Q513.9614 311.5594 514.4927 310.1375Q514.8677 309.15314 514.8677 307.6375Q514.8677 306.04376 514.3677 305.2625Q513.8833 304.46564 512.8833 304.46564Z" fill-rule="nonzero"/><path fill="#000000" d="M532.8028 312.45L531.6309 312.45L530.4747 312.45Q530.0684 312.45 529.89655 312.40314Q529.5997 312.29376 529.5997 311.95Q529.5997 311.35626 530.52155 311.35626L530.8028 311.3719L531.0528 311.3719Q531.0528 311.09064 530.9903 310.54376Q530.9434 309.9969 530.9434 309.71564Q530.9434 308.98126 531.08405 307.45Q531.20905 305.96564 531.20905 305.1844Q530.4122 305.79376 530.20905 305.79376Q529.9747 305.79376 529.7872 305.6219Q529.6153 305.45 529.6153 305.21564Q529.6153 304.95 530.1309 304.54376Q530.4434 304.325 531.02155 303.84064Q531.5372 303.3094 532.0059 303.3094Q532.39655 303.3094 532.39655 303.7625Q532.39655 303.90314 532.3653 304.16876Q532.33405 304.4344 532.33405 304.575Q532.33405 304.7625 532.3497 305.15314Q532.3653 305.54376 532.3653 305.7469Q532.3653 306.40314 532.2247 307.73126Q532.08405 309.0594 532.08405 309.71564Q532.08405 310.0594 532.1309 310.54376Q532.1778 311.02814 532.1934 311.34064L532.8028 311.325Q533.0528 311.325 533.20905 311.4969Q533.3653 311.65314 533.3653 311.8875Q533.3653 312.1375 533.20905 312.29376Q533.0528 312.45 532.8028 312.45ZM537.2559 312.6844Q535.4747 312.6844 534.6622 311.04376Q534.0372 309.79376 534.0372 307.77814Q534.0372 306.09064 534.8497 304.825Q535.8028 303.34064 537.4434 303.34064Q538.9747 303.34064 539.8497 304.65314Q540.58405 305.79376 540.58405 307.41876Q540.58405 310.04376 539.7559 311.3719Q538.9278 312.6844 537.2559 312.6844ZM537.4278 304.46564Q536.3497 304.46564 535.70905 305.575Q535.1778 306.4969 535.1778 307.6844Q535.1778 309.6219 535.6934 310.59064Q536.20905 311.5594 537.2559 311.5594Q538.5059 311.5594 539.0372 310.1375Q539.4122 309.15314 539.4122 307.6375Q539.4122 306.04376 538.9122 305.2625Q538.4278 304.46564 537.4278 304.46564ZM548.1934 312.1375Q548.1778 312.6844 547.6622 312.6844Q547.2403 312.6844 547.0372 312.1844L546.14655 309.79376L545.0997 307.10626Q545.0372 306.96564 545.0372 306.84064Q545.0372 306.60626 545.2247 306.4344Q545.4122 306.2625 545.64655 306.2625Q545.9903 306.2625 546.14655 306.6219L547.6309 310.71564Q548.08405 309.77814 548.7403 307.9969Q548.89655 307.52814 549.2403 306.66876Q549.4278 306.29376 549.7559 306.29376Q550.0059 306.29376 550.1778 306.46564Q550.3653 306.6375 550.3653 306.8719Q550.3653 307.09064 549.39655 309.3719L548.1934 312.1375ZM555.4434 307.9344Q555.1309 307.9344 554.9903 307.71564Q554.9122 307.575 554.8497 307.09064Q554.4122 307.2 553.4903 307.4969Q552.5528 307.8719 552.5372 308.41876Q552.7247 308.48126 552.8809 308.5125Q554.2403 308.7625 554.89655 309.1844Q555.8497 309.79376 555.8497 310.96564Q555.8497 311.91876 555.02155 312.40314Q554.33405 312.8094 553.2872 312.8094Q552.52155 312.8094 551.8184 312.54376Q550.9122 312.21564 550.9122 311.6219Q550.9122 311.3875 551.0997 311.21564Q551.2872 311.04376 551.52155 311.04376Q551.70905 311.04376 551.9903 311.325Q552.1309 311.46564 552.6309 311.54376Q553.02155 311.6219 553.2872 311.6219Q553.77155 311.6219 554.14655 311.4969Q554.6934 311.325 554.6934 310.96564Q554.6934 310.16876 553.58405 309.8875L552.9747 309.7469Q552.1934 309.575 551.8653 309.35626Q551.39655 309.02814 551.39655 308.35626Q551.39655 307.1375 552.5528 306.60626Q552.89655 306.45 553.6622 306.23126Q554.4434 306.0125 554.7872 305.85626Q555.02155 305.7625 555.3028 305.7625Q555.5528 305.7625 555.70905 305.9344Q555.8809 306.09064 555.8809 306.35626Q555.8809 306.5125 555.9434 306.84064Q556.02155 307.16876 556.02155 307.34064Q556.02155 307.60626 555.8497 307.77814Q555.6934 307.9344 555.4434 307.9344ZM565.27155 311.7469Q564.8497 312.0594 563.89655 312.4969Q562.8497 313.0125 562.4434 313.0125Q562.20905 313.0125 562.0528 312.825Q561.89655 312.65314 561.89655 312.41876Q561.89655 312.075 562.2872 311.90314L563.27155 311.5594Q564.1778 311.2 564.6934 310.71564Q565.2247 310.23126 565.6622 309.35626L565.9122 308.84064Q565.58405 309.02814 565.0684 309.2Q564.5528 309.35626 564.2403 309.35626Q563.1309 309.35626 562.3184 308.73126Q561.33405 307.98126 561.33405 306.60626Q561.33405 304.96564 562.3497 304.15314Q563.20905 303.45 564.5997 303.45Q565.6778 303.45 566.5372 304.325Q567.4434 305.2625 567.4434 306.575Q567.45905 308.0594 566.89655 309.46564Q566.3028 310.98126 565.27155 311.7469ZM564.4434 304.45Q563.45905 304.45 562.95905 304.96564Q562.45905 305.46564 562.45905 306.4969Q562.45905 307.35626 563.0684 307.825Q563.5997 308.2469 564.4122 308.2469Q564.8809 308.2469 565.3809 307.96564Q565.6153 307.84064 566.2247 307.3875Q566.3028 306.8719 566.3028 306.575Q566.3028 305.84064 565.6778 305.15314Q565.0684 304.45 564.4434 304.45ZM571.2559 312.6844Q569.4747 312.6844 568.6622 311.04376Q568.0372 309.79376 568.0372 307.77814Q568.0372 306.09064 568.8497 304.825Q569.8028 303.34064 571.4434 303.34064Q572.9747 303.34064 573.8497 304.65314Q574.58405 305.79376 574.58405 307.41876Q574.58405 310.04376 573.7559 311.3719Q572.9278 312.6844 571.2559 312.6844ZM571.4278 304.46564Q570.3497 304.46564 569.70905 305.575Q569.1778 306.4969 569.1778 307.6844Q569.1778 309.6219 569.6934 310.59064Q570.20905 311.5594 571.2559 311.5594Q572.5059 311.5594 573.0372 310.1375Q573.4122 309.15314 573.4122 307.6375Q573.4122 306.04376 572.9122 305.2625Q572.4278 304.46564 571.4278 304.46564Z" fill-rule="nonzero"/><path stroke="#ea4335" stroke-width="4.0" stroke-linecap="butt" d="M150.5 32.55L162.5 32.55" fill-rule="nonzero"/><path fill="#1a1a1a" d="M183.79688 28.221874Q183.07812 28.221874 181.57812 28.096874Q180.10938 27.9875 179.34375 28.003124L178.65625 28.003124Q178.6875 29.346874 178.92188 32.378124Q179.14062 35.190624 179.14062 36.753124Q179.14062 37.096874 179.20312 37.8Q179.26562 38.4875 179.26562 38.846874Q179.26562 39.503124 179.0625 39.9875Q178.78125 40.628124 178.20312 40.628124Q177.8125 40.628124 177.5 40.3625Q177.1875 40.08125 177.1875 39.64375Q177.1875 39.503124 177.23438 39.221874Q177.28125 38.925 177.28125 38.76875Q177.28125 38.3 177.21875 37.346874Q177.15625 36.378124 177.15625 35.89375Q177.15625 34.4875 176.9375 31.971874Q176.70312 29.2375 176.67188 28.034374L175.78125 28.05Q173.64062 28.05 172.42188 27.7375Q171.64062 27.534374 171.64062 26.76875Q171.64062 26.3625 171.89062 26.065624Q172.1875 25.721874 172.64062 25.753124Q172.98438 25.76875 174.20312 25.925Q175.17188 26.05 175.78125 26.05Q176.375 26.05 177.5625 26.034374Q178.75 26.003124 179.34375 26.003124Q180.09375 26.003124 181.5625 26.1125Q183.04688 26.20625 183.79688 26.20625Q184.21875 26.20625 184.5 26.503124Q184.78125 26.784374 184.78125 27.221874Q184.78125 27.64375 184.5 27.940624Q184.21875 28.221874 183.79688 28.221874ZM193.45312 33.33125Q193.39062 34.55 192.48438 34.55Q191.64062 34.55 191.64062 33.58125Q191.64062 33.39375 191.60938 32.909374L191.57812 32.08125Q190.03125 32.26875 189.10938 32.95625Q188.23438 33.58125 187.67188 34.8625L187.6875 40.221874Q187.6875 41.20625 186.71875 41.20625Q185.85938 41.20625 185.85938 40.221874L185.85938 33.3625Q185.85938 33.034374 185.875 32.39375Q185.90625 31.753124 185.90625 31.425Q185.90625 30.440624 186.76562 30.440624Q187.71875 30.440624 187.73438 32.065624Q189.60938 30.253124 191.89062 30.253124Q192.6875 30.253124 193.07812 30.846874Q193.46875 31.440624 193.46875 32.64375Q193.46875 33.159374 193.45312 33.33125ZM203.48438 41.190624Q203.29688 41.190624 202.8125 40.76875Q202.375 40.3625 202.15625 40.05Q201.21875 40.565624 200.5 40.815624Q199.79688 41.08125 199.3125 41.08125Q197.03125 41.08125 195.98438 39.784374Q195.0 38.58125 195.0 36.08125Q195.0 33.70625 196.625 32.034374Q198.25 30.346874 200.5 30.346874Q201.35938 30.346874 202.40625 30.8Q203.73438 31.346874 203.73438 32.1125Q203.73438 32.378124 203.54688 32.58125Q203.45312 32.95625 203.39062 33.8Q203.34375 34.64375 203.32812 35.971874Q203.3125 37.190624 203.5 37.89375Q203.59375 38.315624 204.10938 39.6125Q204.17188 39.784374 204.32812 40.128124L204.39062 40.3Q204.39062 40.690624 204.10938 40.940624Q203.84375 41.190624 203.48438 41.190624ZM201.45312 34.409374Q201.45312 33.9875 201.5 33.503124Q201.5625 33.003124 201.67188 32.440624Q201.3125 32.253124 201.04688 32.175Q200.79688 32.08125 200.64062 32.08125Q199.125 32.08125 198.01562 33.315624Q196.92188 34.55 196.92188 36.159374Q196.92188 37.76875 197.48438 38.565624Q198.0625 39.3625 199.1875 39.3625Q200.125 39.3625 200.78125 39.01875Q201.125 38.846874 201.76562 38.284374Q201.45312 35.690624 201.45312 34.409374ZM207.71875 28.190624Q207.25 28.190624 206.90625 27.8625Q206.57812 27.51875 206.57812 27.05Q206.57812 26.58125 206.90625 26.253124Q207.25 25.925 207.71875 25.925Q208.1875 25.925 208.51562 26.253124Q208.85938 26.58125 208.85938 27.05Q208.85938 27.51875 208.51562 27.8625Q208.1875 28.190624 207.71875 28.190624ZM208.15625 36.1125Q208.15625 36.70625 208.1875 37.878124Q208.23438 39.034374 208.23438 39.628124Q208.23438 40.05 207.96875 40.33125Q207.70312 40.596874 207.28125 40.596874Q206.85938 40.596874 206.57812 40.33125Q206.3125 40.05 206.3125 39.628124Q206.3125 39.034374 206.28125 37.878124Q206.25 36.70625 206.25 36.1125Q206.25 35.190624 206.34375 33.83125Q206.4375 32.45625 206.4375 31.534374Q206.4375 31.096874 206.70312 30.83125Q206.98438 30.55 207.40625 30.55Q207.82812 30.55 208.09375 30.83125Q208.35938 31.096874 208.35938 31.534374Q208.35938 32.45625 208.25 33.83125Q208.15625 35.190624 208.15625 36.1125ZM219.34375 41.2375Q218.51562 41.2375 218.40625 40.33125L218.125 38.190624Q217.98438 37.05 217.98438 36.05Q217.98438 35.76875 218.01562 35.128124Q218.0625 34.471874 218.0625 34.190624Q218.0625 32.08125 217.28125 32.08125Q216.1875 32.08125 215.1875 33.378124Q214.29688 34.565624 213.78125 36.3625Q213.76562 36.753124 213.6875 37.33125Q213.64062 37.815624 213.64062 38.26875Q213.64062 38.565624 213.6875 39.159374Q213.75 39.7375 213.75 40.034374Q213.75 40.471874 213.48438 40.7375Q213.21875 41.01875 212.79688 41.01875Q212.35938 41.01875 212.09375 40.7375Q211.84375 40.471874 211.84375 40.034374Q211.84375 39.7375 211.78125 39.159374Q211.71875 38.565624 211.71875 38.26875Q211.71875 37.26875 211.85938 35.4875Q212.0 33.70625 212.0 32.690624Q212.0 32.378124 211.95312 31.76875Q211.92188 31.159374 211.92188 30.846874Q211.92188 30.425 212.20312 30.159374Q212.48438 29.878124 212.89062 29.878124Q213.79688 29.878124 213.875 31.159374L213.90625 32.3Q215.54688 30.1125 217.28125 30.1125Q218.84375 30.1125 219.45312 31.4875Q219.875 32.409374 219.92188 34.20625L219.92188 35.190624L219.90625 36.096874Q219.90625 36.909374 220.10938 38.190624Q220.32812 39.471874 220.32812 40.26875Q220.32812 40.70625 220.04688 40.971874Q219.76562 41.2375 219.34375 41.2375ZM223.71875 28.190624Q223.25 28.190624 222.90625 27.8625Q222.57812 27.51875 222.57812 27.05Q222.57812 26.58125 222.90625 26.253124Q223.25 25.925 223.71875 25.925Q224.1875 25.925 224.51562 26.253124Q224.85938 26.58125 224.85938 27.05Q224.85938 27.51875 224.51562 27.8625Q224.1875 28.190624 223.71875 28.190624ZM224.15625 36.1125Q224.15625 36.70625 224.1875 37.878124Q224.23438 39.034374 224.23438 39.628124Q224.23438 40.05 223.96875 40.33125Q223.70312 40.596874 223.28125 40.596874Q222.85938 40.596874 222.57812 40.33125Q222.3125 40.05 222.3125 39.628124Q222.3125 39.034374 222.28125 37.878124Q222.25 36.70625 222.25 36.1125Q222.25 35.190624 222.34375 33.83125Q222.4375 32.45625 222.4375 31.534374Q222.4375 31.096874 222.70312 30.83125Q222.98438 30.55 223.40625 30.55Q223.82812 30.55 224.09375 30.83125Q224.35938 31.096874 224.35938 31.534374Q224.35938 32.45625 224.25 33.83125Q224.15625 35.190624 224.15625 36.1125ZM235.34375 41.2375Q234.51562 41.2375 234.40625 40.33125L234.125 38.190624Q233.98438 37.05 233.98438 36.05Q233.98438 35.76875 234.01562 35.128124Q234.0625 34.471874 234.0625 34.190624Q234.0625 32.08125 233.28125 32.08125Q232.1875 32.08125 231.1875 33.378124Q230.29688 34.565624 229.78125 36.3625Q229.76562 36.753124 229.6875 37.33125Q229.64062 37.815624 229.64062 38.26875Q229.64062 38.565624 229.6875 39.159374Q229.75 39.7375 229.75 40.034374Q229.75 40.471874 229.48438 40.7375Q229.21875 41.01875 228.79688 41.01875Q228.35938 41.01875 228.09375 40.7375Q227.84375 40.471874 227.84375 40.034374Q227.84375 39.7375 227.78125 39.159374Q227.71875 38.565624 227.71875 38.26875Q227.71875 37.26875 227.85938 35.4875Q228.0 33.70625 228.0 32.690624Q228.0 32.378124 227.95312 31.76875Q227.92188 31.159374 227.92188 30.846874Q227.92188 30.425 228.20312 30.159374Q228.48438 29.878124 228.89062 29.878124Q229.79688 29.878124 229.875 31.159374L229.90625 32.3Q231.54688 30.1125 233.28125 30.1125Q234.84375 30.1125 235.45312 31.4875Q235.875 32.409374 235.92188 34.20625L235.92188 35.190624L235.90625 36.096874Q235.90625 36.909374 236.10938 38.190624Q236.32812 39.471874 236.32812 40.26875Q236.32812 40.70625 236.04688 40.971874Q235.76562 41.2375 235.34375 41.2375ZM245.89062 36.346874L245.67188 39.628124Q245.60938 41.58125 245.26562 42.815624Q244.82812 44.39375 243.85938 45.14375Q242.6875 46.065624 240.46875 46.065624Q239.17188 46.065624 238.29688 45.878124Q237.0625 45.64375 237.0625 44.8625Q237.0625 44.003124 237.92188 44.003124Q238.26562 44.003124 239.07812 44.175Q239.90625 44.346874 240.90625 44.315624Q242.78125 44.284374 243.5 42.503124Q243.96875 41.315624 243.98438 38.846874Q243.46875 39.815624 242.73438 40.315624Q242.01562 40.8 241.07812 40.8Q239.29688 40.8 238.1875 39.596874Q237.09375 38.378124 237.09375 36.45625Q237.09375 33.815624 238.59375 32.20625Q240.15625 30.55 242.85938 30.55Q243.76562 30.55 244.375 30.784374Q245.0 31.01875 245.3125 31.4875Q246.35938 31.51875 246.35938 32.64375Q246.35938 33.346874 246.15625 34.503124Q245.9375 35.846874 245.89062 36.346874ZM242.76562 32.1125Q240.90625 32.1125 239.89062 33.39375Q238.98438 34.55 238.98438 36.315624Q238.98438 37.7375 239.51562 38.45625Q240.0625 39.159374 241.125 39.159374Q242.10938 39.159374 243.04688 38.05Q243.89062 37.01875 244.0 36.01875Q244.20312 34.95625 244.4375 32.70625Q244.04688 32.409374 243.625 32.26875Q243.20312 32.1125 242.76562 32.1125ZM263.51562 40.14375Q262.40625 40.675 260.04688 41.08125Q257.85938 41.45625 256.48438 41.45625Q255.5 41.45625 255.07812 41.159374Q254.48438 40.753124 254.48438 39.64375L254.6875 36.425Q254.9375 31.940624 254.9375 26.503124Q254.9375 26.08125 255.21875 25.784374Q255.5 25.4875 255.90625 25.4875Q256.32812 25.4875 256.59375 25.784374Q256.875 26.08125 256.875 26.503124Q256.875 32.01875 256.60938 36.534374L256.48438 38.01875Q256.40625 38.83125 256.4375 39.45625Q258.98438 39.4875 262.875 38.253124Q263.04688 38.20625 263.1875 38.20625Q263.60938 38.20625 263.89062 38.534374Q264.14062 38.846874 264.14062 39.2375Q264.14062 39.8625 263.51562 40.14375ZM269.51562 41.128124Q267.875 41.128124 266.70312 39.909374Q265.375 38.565624 265.3125 36.284374Q265.25 34.08125 266.42188 32.409374Q267.79688 30.425 270.23438 30.425Q272.1875 30.425 273.1875 32.20625Q274.0 33.659374 273.96875 35.690624Q273.9375 37.846874 272.82812 39.39375Q271.57812 41.128124 269.51562 41.128124ZM270.10938 32.409374Q268.67188 32.39375 267.875 33.76875Q267.23438 34.878124 267.23438 36.284374Q267.23438 37.70625 268.0 38.503124Q268.65625 39.159374 269.51562 39.159374Q270.53125 39.159374 271.26562 38.409374Q272.09375 37.596874 272.14062 36.190624Q272.28125 32.409374 270.10938 32.409374ZM283.45312 33.034374Q282.90625 33.034374 282.70312 32.675Q282.54688 32.409374 282.4375 31.6125Q281.71875 31.8 280.1875 32.3Q278.60938 32.925 278.60938 33.846874Q278.90625 33.940624 279.1875 34.003124Q281.42188 34.39375 282.51562 35.096874Q284.10938 36.128124 284.10938 38.065624Q284.10938 39.659374 282.73438 40.471874Q281.59375 41.14375 279.84375 41.14375Q278.5625 41.14375 277.40625 40.70625Q275.90625 40.159374 275.90625 39.175Q275.90625 38.784374 276.20312 38.503124Q276.51562 38.20625 276.90625 38.20625Q277.20312 38.20625 277.6875 38.675Q277.92188 38.89375 278.75 39.05Q279.39062 39.159374 279.84375 39.159374Q280.67188 39.159374 281.29688 38.971874Q282.20312 38.690624 282.20312 38.065624Q282.20312 36.7375 280.34375 36.26875L279.32812 36.05Q278.03125 35.76875 277.48438 35.378124Q276.6875 34.83125 276.6875 33.7375Q276.6875 31.690624 278.60938 30.815624Q279.20312 30.565624 280.48438 30.20625Q281.78125 29.83125 282.34375 29.565624Q282.73438 29.39375 283.20312 29.39375Q283.625 29.39375 283.89062 29.675Q284.15625 29.940624 284.15625 30.378124Q284.15625 30.659374 284.28125 31.20625Q284.40625 31.753124 284.40625 32.05Q284.40625 32.4875 284.14062 32.76875Q283.875 33.034374 283.45312 33.034374ZM293.45312 33.034374Q292.90625 33.034374 292.70312 32.675Q292.54688 32.409374 292.4375 31.6125Q291.71875 31.8 290.1875 32.3Q288.60938 32.925 288.60938 33.846874Q288.90625 33.940624 289.1875 34.003124Q291.42188 34.39375 292.51562 35.096874Q294.10938 36.128124 294.10938 38.065624Q294.10938 39.659374 292.73438 40.471874Q291.59375 41.14375 289.84375 41.14375Q288.5625 41.14375 287.40625 40.70625Q285.90625 40.159374 285.90625 39.175Q285.90625 38.784374 286.20312 38.503124Q286.51562 38.20625 286.90625 38.20625Q287.20312 38.20625 287.6875 38.675Q287.92188 38.89375 288.75 39.05Q289.39062 39.159374 289.84375 39.159374Q290.67188 39.159374 291.29688 38.971874Q292.20312 38.690624 292.20312 38.065624Q292.20312 36.7375 290.34375 36.26875L289.32812 36.05Q288.03125 35.76875 287.48438 35.378124Q286.6875 34.83125 286.6875 33.7375Q286.6875 31.690624 288.60938 30.815624Q289.20312 30.565624 290.48438 30.20625Q291.78125 29.83125 292.34375 29.565624Q292.73438 29.39375 293.20312 29.39375Q293.625 29.39375 293.89062 29.675Q294.15625 29.940624 294.15625 30.378124Q294.15625 30.659374 294.28125 31.20625Q294.40625 31.753124 294.40625 32.05Q294.40625 32.4875 294.14062 32.76875Q293.875 33.034374 293.45312 33.034374Z" fill-rule="nonzero"/><path stroke="#fbbc04" stroke-width="4.0" stroke-linecap="butt" d="M311.5 32.55L323.5 32.55" fill-rule="nonzero"/><path fill="#1a1a1a" d="M344.79688 28.221874Q344.07812 28.221874 342.57812 28.096874Q341.10938 27.9875 340.34375 28.003124L339.65625 28.003124Q339.6875 29.346874 339.92188 32.378124Q340.14062 35.190624 340.14062 36.753124Q340.14062 37.096874 340.20312 37.8Q340.26562 38.4875 340.26562 38.846874Q340.26562 39.503124 340.0625 39.9875Q339.78125 40.628124 339.20312 40.628124Q338.8125 40.628124 338.5 40.3625Q338.1875 40.08125 338.1875 39.64375Q338.1875 39.503124 338.23438 39.221874Q338.28125 38.925 338.28125 38.76875Q338.28125 38.3 338.21875 37.346874Q338.15625 36.378124 338.15625 35.89375Q338.15625 34.4875 337.9375 31.971874Q337.70312 29.2375 337.67188 28.034374L336.78125 28.05Q334.64062 28.05 333.42188 27.7375Q332.64062 27.534374 332.64062 26.76875Q332.64062 26.3625 332.89062 26.065624Q333.1875 25.721874 333.64062 25.753124Q333.98438 25.76875 335.20312 25.925Q336.17188 26.05 336.78125 26.05Q337.375 26.05 338.5625 26.034374Q339.75 26.003124 340.34375 26.003124Q341.09375 26.003124 342.5625 26.1125Q344.04688 26.20625 344.79688 26.20625Q345.21875 26.20625 345.5 26.503124Q345.78125 26.784374 345.78125 27.221874Q345.78125 27.64375 345.5 27.940624Q345.21875 28.221874 344.79688 28.221874ZM351.42188 41.003124Q349.21875 41.003124 347.84375 39.89375Q346.34375 38.675 346.34375 36.471874Q346.34375 33.940624 347.57812 32.221874Q348.92188 30.346874 351.15625 30.346874Q352.78125 30.346874 353.79688 30.89375Q355.0625 31.565624 355.0625 32.95625Q355.0625 33.940624 353.95312 34.7375Q353.46875 35.096874 351.89062 35.83125L348.15625 37.596874Q348.70312 38.409374 349.51562 38.83125Q350.32812 39.2375 351.42188 39.2375Q352.09375 39.2375 353.0 38.971874Q354.15625 38.659374 354.48438 38.14375Q354.8125 37.6125 355.20312 37.6125Q355.54688 37.6125 355.8125 37.878124Q356.07812 38.128124 356.07812 38.471874Q356.07812 39.55 354.32812 40.33125Q352.82812 41.003124 351.42188 41.003124ZM351.15625 32.096874Q349.96875 32.096874 349.17188 33.01875Q348.375 33.940624 347.98438 35.8L350.98438 34.378124Q352.75 33.51875 353.51562 32.878124Q352.67188 32.096874 351.15625 32.096874ZM364.45312 33.034374Q363.90625 33.034374 363.70312 32.675Q363.54688 32.409374 363.4375 31.6125Q362.71875 31.8 361.1875 32.3Q359.60938 32.925 359.60938 33.846874Q359.90625 33.940624 360.1875 34.003124Q362.42188 34.39375 363.51562 35.096874Q365.10938 36.128124 365.10938 38.065624Q365.10938 39.659374 363.73438 40.471874Q362.59375 41.14375 360.84375 41.14375Q359.5625 41.14375 358.40625 40.70625Q356.90625 40.159374 356.90625 39.175Q356.90625 38.784374 357.20312 38.503124Q357.51562 38.20625 357.90625 38.20625Q358.20312 38.20625 358.6875 38.675Q358.92188 38.89375 359.75 39.05Q360.39062 39.159374 360.84375 39.159374Q361.67188 39.159374 362.29688 38.971874Q363.20312 38.690624 363.20312 38.065624Q363.20312 36.7375 361.34375 36.26875L360.32812 36.05Q359.03125 35.76875 358.48438 35.378124Q357.6875 34.83125 357.6875 33.7375Q357.6875 31.690624 359.60938 30.815624Q360.20312 30.565624 361.48438 30.20625Q362.78125 29.83125 363.34375 29.565624Q363.73438 29.39375 364.20312 29.39375Q364.625 29.39375 364.89062 29.675Q365.15625 29.940624 365.15625 30.378124Q365.15625 30.659374 365.28125 31.20625Q365.40625 31.753124 365.40625 32.05Q365.40625 32.4875 365.14062 32.76875Q364.875 33.034374 364.45312 33.034374ZM374.39062 32.221874Q374.1875 32.221874 373.90625 32.20625Q373.625 32.190624 373.42188 32.190624Q373.20312 32.190624 372.09375 32.33125L372.28125 38.1125L372.29688 38.534374L372.29688 39.034374Q372.34375 41.175 371.28125 41.175Q370.89062 41.175 370.59375 40.925Q370.3125 40.675 370.3125 40.284374Q370.3125 39.909374 370.34375 39.175Q370.375 38.425 370.375 38.065624L370.17188 32.3625Q369.45312 32.33125 368.0 32.190624Q367.14062 32.065624 367.14062 31.221874Q367.14062 30.8 367.39062 30.51875Q367.65625 30.221874 368.07812 30.221874L370.125 30.39375Q370.125 29.89375 370.07812 29.065624Q370.03125 28.221874 370.03125 27.846874Q370.03125 27.440624 370.3125 27.175Q370.60938 26.909374 371.01562 26.909374Q371.89062 26.909374 372.03125 28.346874Q372.0625 28.70625 372.0625 29.20625L372.04688 29.784374L372.03125 30.378124Q373.25 30.221874 373.42188 30.221874Q374.4375 30.221874 374.75 30.33125Q375.34375 30.51875 375.34375 31.2375Q375.34375 31.675 375.07812 31.95625Q374.8125 32.221874 374.39062 32.221874ZM377.71875 28.190624Q377.25 28.190624 376.90625 27.8625Q376.57812 27.51875 376.57812 27.05Q376.57812 26.58125 376.90625 26.253124Q377.25 25.925 377.71875 25.925Q378.1875 25.925 378.51562 26.253124Q378.85938 26.58125 378.85938 27.05Q378.85938 27.51875 378.51562 27.8625Q378.1875 28.190624 377.71875 28.190624ZM378.15625 36.1125Q378.15625 36.70625 378.1875 37.878124Q378.23438 39.034374 378.23438 39.628124Q378.23438 40.05 377.96875 40.33125Q377.70312 40.596874 377.28125 40.596874Q376.85938 40.596874 376.57812 40.33125Q376.3125 40.05 376.3125 39.628124Q376.3125 39.034374 376.28125 37.878124Q376.25 36.70625 376.25 36.1125Q376.25 35.190624 376.34375 33.83125Q376.4375 32.45625 376.4375 31.534374Q376.4375 31.096874 376.70312 30.83125Q376.98438 30.55 377.40625 30.55Q377.82812 30.55 378.09375 30.83125Q378.35938 31.096874 378.35938 31.534374Q378.35938 32.45625 378.25 33.83125Q378.15625 35.190624 378.15625 36.1125ZM389.34375 41.2375Q388.51562 41.2375 388.40625 40.33125L388.125 38.190624Q387.98438 37.05 387.98438 36.05Q387.98438 35.76875 388.01562 35.128124Q388.0625 34.471874 388.0625 34.190624Q388.0625 32.08125 387.28125 32.08125Q386.1875 32.08125 385.1875 33.378124Q384.29688 34.565624 383.78125 36.3625Q383.76562 36.753124 383.6875 37.33125Q383.64062 37.815624 383.64062 38.26875Q383.64062 38.565624 383.6875 39.159374Q383.75 39.7375 383.75 40.034374Q383.75 40.471874 383.48438 40.7375Q383.21875 41.01875 382.79688 41.01875Q382.35938 41.01875 382.09375 40.7375Q381.84375 40.471874 381.84375 40.034374Q381.84375 39.7375 381.78125 39.159374Q381.71875 38.565624 381.71875 38.26875Q381.71875 37.26875 381.85938 35.4875Q382.0 33.70625 382.0 32.690624Q382.0 32.378124 381.95312 31.76875Q381.92188 31.159374 381.92188 30.846874Q381.92188 30.425 382.20312 30.159374Q382.48438 29.878124 382.89062 29.878124Q383.79688 29.878124 383.875 31.159374L383.90625 32.3Q385.54688 30.1125 387.28125 30.1125Q388.84375 30.1125 389.45312 31.4875Q389.875 32.409374 389.92188 34.20625L389.92188 35.190624L389.90625 36.096874Q389.90625 36.909374 390.10938 38.190624Q390.32812 39.471874 390.32812 40.26875Q390.32812 40.70625 390.04688 40.971874Q389.76562 41.2375 389.34375 41.2375ZM399.89062 36.346874L399.67188 39.628124Q399.60938 41.58125 399.26562 42.815624Q398.82812 44.39375 397.85938 45.14375Q396.6875 46.065624 394.46875 46.065624Q393.17188 46.065624 392.29688 45.878124Q391.0625 45.64375 391.0625 44.8625Q391.0625 44.003124 391.92188 44.003124Q392.26562 44.003124 393.07812 44.175Q393.90625 44.346874 394.90625 44.315624Q396.78125 44.284374 397.5 42.503124Q397.96875 41.315624 397.98438 38.846874Q397.46875 39.815624 396.73438 40.315624Q396.01562 40.8 395.07812 40.8Q393.29688 40.8 392.1875 39.596874Q391.09375 38.378124 391.09375 36.45625Q391.09375 33.815624 392.59375 32.20625Q394.15625 30.55 396.85938 30.55Q397.76562 30.55 398.375 30.784374Q399.0 31.01875 399.3125 31.4875Q400.35938 31.51875 400.35938 32.64375Q400.35938 33.346874 400.15625 34.503124Q399.9375 35.846874 399.89062 36.346874ZM396.76562 32.1125Q394.90625 32.1125 393.89062 33.39375Q392.98438 34.55 392.98438 36.315624Q392.98438 37.7375 393.51562 38.45625Q394.0625 39.159374 395.125 39.159374Q396.10938 39.159374 397.04688 38.05Q397.89062 37.01875 398.0 36.01875Q398.20312 34.95625 398.4375 32.70625Q398.04688 32.409374 397.625 32.26875Q397.20312 32.1125 396.76562 32.1125ZM417.51562 40.14375Q416.40625 40.675 414.04688 41.08125Q411.85938 41.45625 410.48438 41.45625Q409.5 41.45625 409.07812 41.159374Q408.48438 40.753124 408.48438 39.64375L408.6875 36.425Q408.9375 31.940624 408.9375 26.503124Q408.9375 26.08125 409.21875 25.784374Q409.5 25.4875 409.90625 25.4875Q410.32812 25.4875 410.59375 25.784374Q410.875 26.08125 410.875 26.503124Q410.875 32.01875 410.60938 36.534374L410.48438 38.01875Q410.40625 38.83125 410.4375 39.45625Q412.98438 39.4875 416.875 38.253124Q417.04688 38.20625 417.1875 38.20625Q417.60938 38.20625 417.89062 38.534374Q418.14062 38.846874 418.14062 39.2375Q418.14062 39.8625 417.51562 40.14375ZM423.51562 41.128124Q421.875 41.128124 420.70312 39.909374Q419.375 38.565624 419.3125 36.284374Q419.25 34.08125 420.42188 32.409374Q421.79688 30.425 424.23438 30.425Q426.1875 30.425 427.1875 32.20625Q428.0 33.659374 427.96875 35.690624Q427.9375 37.846874 426.82812 39.39375Q425.57812 41.128124 423.51562 41.128124ZM424.10938 32.409374Q422.67188 32.39375 421.875 33.76875Q421.23438 34.878124 421.23438 36.284374Q421.23438 37.70625 422.0 38.503124Q422.65625 39.159374 423.51562 39.159374Q424.53125 39.159374 425.26562 38.409374Q426.09375 37.596874 426.14062 36.190624Q426.28125 32.409374 424.10938 32.409374ZM437.45312 33.034374Q436.90625 33.034374 436.70312 32.675Q436.54688 32.409374 436.4375 31.6125Q435.71875 31.8 434.1875 32.3Q432.60938 32.925 432.60938 33.846874Q432.90625 33.940624 433.1875 34.003124Q435.42188 34.39375 436.51562 35.096874Q438.10938 36.128124 438.10938 38.065624Q438.10938 39.659374 436.73438 40.471874Q435.59375 41.14375 433.84375 41.14375Q432.5625 41.14375 431.40625 40.70625Q429.90625 40.159374 429.90625 39.175Q429.90625 38.784374 430.20312 38.503124Q430.51562 38.20625 430.90625 38.20625Q431.20312 38.20625 431.6875 38.675Q431.92188 38.89375 432.75 39.05Q433.39062 39.159374 433.84375 39.159374Q434.67188 39.159374 435.29688 38.971874Q436.20312 38.690624 436.20312 38.065624Q436.20312 36.7375 434.34375 36.26875L433.32812 36.05Q432.03125 35.76875 431.48438 35.378124Q430.6875 34.83125 430.6875 33.7375Q430.6875 31.690624 432.60938 30.815624Q433.20312 30.565624 434.48438 30.20625Q435.78125 29.83125 436.34375 29.565624Q436.73438 29.39375 437.20312 29.39375Q437.625 29.39375 437.89062 29.675Q438.15625 29.940624 438.15625 30.378124Q438.15625 30.659374 438.28125 31.20625Q438.40625 31.753124 438.40625 32.05Q438.40625 32.4875 438.14062 32.76875Q437.875 33.034374 437.45312 33.034374ZM447.45312 33.034374Q446.90625 33.034374 446.70312 32.675Q446.54688 32.409374 446.4375 31.6125Q445.71875 31.8 444.1875 32.3Q442.60938 32.925 442.60938 33.846874Q442.90625 33.940624 443.1875 34.003124Q445.42188 34.39375 446.51562 35.096874Q448.10938 36.128124 448.10938 38.065624Q448.10938 39.659374 446.73438 40.471874Q445.59375 41.14375 443.84375 41.14375Q442.5625 41.14375 441.40625 40.70625Q439.90625 40.159374 439.90625 39.175Q439.90625 38.784374 440.20312 38.503124Q440.51562 38.20625 440.90625 38.20625Q441.20312 38.20625 441.6875 38.675Q441.92188 38.89375 442.75 39.05Q443.39062 39.159374 443.84375 39.159374Q444.67188 39.159374 445.29688 38.971874Q446.20312 38.690624 446.20312 38.065624Q446.20312 36.7375 444.34375 36.26875L443.32812 36.05Q442.03125 35.76875 441.48438 35.378124Q440.6875 34.83125 440.6875 33.7375Q440.6875 31.690624 442.60938 30.815624Q443.20312 30.565624 444.48438 30.20625Q445.78125 29.83125 446.34375 29.565624Q446.73438 29.39375 447.20312 29.39375Q447.625 29.39375 447.89062 29.675Q448.15625 29.940624 448.15625 30.378124Q448.15625 30.659374 448.28125 31.20625Q448.40625 31.753124 448.40625 32.05Q448.40625 32.4875 448.14062 32.76875Q447.875 33.034374 447.45312 33.034374Z" fill-rule="nonzero"/></svg>